<svg width="64" height="64" viewBox="0 0 64 64" fill="none" xmlns="http://www.w3.org/2000/svg">
<path d="M63.7383 36.0633C65.9779 18.5304 53.5961 2.50132 36.0953 0.26172C18.5944 -1.97788 2.50132 10.4039 0.26172 27.9047C-1.97788 45.4056 10.4039 61.4667 27.9047 63.7383C45.4376 65.9779 61.4667 53.5961 63.7383 36.0633Z" fill="#FF6C37"/>
<path d="M43.5491 20.5461L30.0475 34.0476L26.2402 30.2403C39.5178 16.9627 40.8296 18.1145 43.5491 20.5461Z" fill="white"/>
<path d="M30.0479 34.3676C29.9519 34.3676 29.888 34.3356 29.824 34.2716L25.9847 30.4643C25.8567 30.3363 25.8567 30.1443 25.9847 30.0164C39.4862 16.5148 40.894 17.7946 43.7415 20.3541C43.8054 20.4181 43.8374 20.4821 43.8374 20.5781C43.8374 20.674 43.8054 20.738 43.7415 20.802L30.2399 34.2716C30.2079 34.3356 30.1119 34.3676 30.0479 34.3676ZM26.6885 30.2403L30.0479 33.5997L43.0696 20.5781C40.702 18.4664 39.1023 17.8265 26.6885 30.2403Z" fill="#FF6C37"/>
<path d="M33.9196 37.9189L30.2402 34.2396L43.7418 20.738C47.3571 24.3854 41.9501 30.3043 33.9196 37.9189Z" fill="white"/>
<path d="M33.9185 38.2389C33.8225 38.2389 33.7585 38.2069 33.6945 38.1429L30.0152 34.4636C29.9512 34.3996 29.9512 34.3356 29.9512 34.2396C29.9512 34.1436 29.9832 34.0796 30.0472 34.0156L43.5487 20.5141C43.6767 20.3861 43.8687 20.3861 43.9966 20.5141C44.8285 21.2819 45.2764 22.3697 45.2444 23.4895C45.1804 27.0409 41.1492 31.5521 34.1744 38.1429C34.0784 38.2069 33.9824 38.2389 33.9185 38.2389ZM30.687 34.2396C32.7347 36.3192 33.5985 37.1511 33.9185 37.471C39.2935 32.3519 44.5085 27.1049 44.5405 23.4895C44.5725 22.6577 44.2526 21.8258 43.7087 21.186L30.687 34.2396Z" fill="#FF6C37"/>
<path d="M26.3046 30.3363L29.0241 33.0558C29.0881 33.1198 29.0881 33.1838 29.0241 33.2478C28.9921 33.2798 28.9921 33.2798 28.9601 33.2798L23.3291 34.4956C23.0412 34.5276 22.7852 34.3356 22.7212 34.0477C22.6892 33.8877 22.7532 33.7277 22.8492 33.6317L26.1126 30.3683C26.1766 30.3043 26.2726 30.2723 26.3046 30.3363Z" fill="white"/>
<path d="M23.2322 34.8155C22.7523 34.8155 22.4004 34.4316 22.4004 33.9517C22.4004 33.7277 22.4964 33.5038 22.6563 33.3438L25.9198 30.0804C26.1117 29.9204 26.3677 29.9204 26.5596 30.0804L29.2792 32.7999C29.4711 32.9598 29.4711 33.2478 29.2792 33.4398C29.2152 33.5037 29.1512 33.5357 29.0552 33.5677L23.4242 34.7835C23.3602 34.7835 23.2962 34.8155 23.2322 34.8155ZM26.2077 30.6883L23.0723 33.8237C23.0083 33.8877 22.9763 33.9837 23.0403 34.0796C23.0723 34.1756 23.1683 34.2076 23.2642 34.1756L28.5433 33.0238L26.2077 30.6883Z" fill="#FF6C37"/>
<path d="M50.6837 13.0594C48.6361 11.0758 45.3406 11.1397 43.357 13.2194C41.3734 15.299 41.4374 18.5624 43.517 20.546C45.2127 22.1778 47.7722 22.4657 49.7878 21.2499L46.1405 17.6026L50.6837 13.0594Z" fill="white"/>
<path d="M47.1007 22.3058C44.0612 22.3058 41.5977 19.8422 41.5977 16.8028C41.5977 13.7633 44.0612 11.2997 47.1007 11.2997C48.5084 11.2997 49.8842 11.8436 50.908 12.8355C50.972 12.8995 51.004 12.9634 51.004 13.0594C51.004 13.1554 50.972 13.2194 50.908 13.2834L46.5888 17.6026L49.9801 20.994C50.1081 21.122 50.1081 21.3139 49.9801 21.4419C49.9482 21.4739 49.9482 21.4739 49.9162 21.5059C49.0843 22.0178 48.0925 22.3058 47.1007 22.3058ZM47.1007 11.9716C44.4132 11.9716 42.2375 14.1472 42.2695 16.8347C42.2695 19.5223 44.4451 21.6979 47.1327 21.6659C47.8685 21.6659 48.6044 21.5059 49.2763 21.154L45.9169 17.8266C45.8529 17.7626 45.8209 17.6986 45.8209 17.6026C45.8209 17.5066 45.8529 17.4426 45.9169 17.3786L50.2041 13.0914C49.3403 12.3556 48.2525 11.9716 47.1007 11.9716Z" fill="#FF6C37"/>
<path d="M50.7798 13.1554L50.7158 13.0914L46.1406 17.6026L49.756 21.218C50.1079 20.994 50.4598 20.7381 50.7478 20.4501C52.7954 18.4345 52.7954 15.1711 50.7798 13.1554Z" fill="white"/>
<path d="M49.7876 21.5699C49.6916 21.5699 49.6276 21.5379 49.5636 21.4739L45.9163 17.8266C45.8523 17.7626 45.8203 17.6986 45.8203 17.6026C45.8203 17.5066 45.8523 17.4427 45.9163 17.3787L50.4595 12.8355C50.5875 12.7075 50.7794 12.7075 50.9074 12.8355L51.0034 12.8995C53.147 15.0431 53.147 18.4985 51.0354 20.6741C50.7154 20.994 50.3635 21.282 49.9796 21.5059C49.8836 21.5379 49.8196 21.5699 49.7876 21.5699ZM46.5882 17.6026L49.8196 20.834C50.0755 20.6741 50.3315 20.4501 50.5235 20.2581C52.3471 18.4345 52.4431 15.459 50.6834 13.5394L46.5882 17.6026Z" fill="#FF6C37"/>
<path d="M44.0934 21.122C43.3255 20.3541 42.0777 20.3541 41.3099 21.122L29.248 33.1838L31.2637 35.1994L44.0294 24.0015C44.8612 23.2976 44.9252 22.0498 44.2213 21.218C44.1574 21.186 44.1254 21.154 44.0934 21.122Z" fill="white"/>
<path d="M31.2321 35.5194C31.1361 35.5194 31.0721 35.4874 31.0081 35.4234L28.9925 33.4078C28.8645 33.2798 28.8645 33.0878 28.9925 32.9598L41.0543 20.898C41.9501 20.0022 43.3899 20.0022 44.2857 20.898C45.1816 21.7939 45.1816 23.2336 44.2857 24.1294C44.2537 24.1614 44.2217 24.1934 44.1897 24.2254L31.424 35.4234C31.392 35.4874 31.328 35.5194 31.2321 35.5194ZM29.6963 33.1838L31.2641 34.7515L43.8058 23.7455C44.5097 23.1696 44.5737 22.1138 43.9978 21.4099C43.4219 20.706 42.3661 20.6421 41.6622 21.218C41.6302 21.2499 41.5982 21.2819 41.5342 21.3139L29.6963 33.1838Z" fill="#FF6C37"/>
<path d="M20.0013 46.9093C19.8733 46.9733 19.8094 47.1013 19.8414 47.2292L20.3853 49.5328C20.5132 49.8528 20.3213 50.2367 19.9693 50.3327C19.7134 50.4287 19.4254 50.3327 19.2655 50.1407L15.7461 46.6533L27.232 35.1674L31.1993 35.2314L33.8868 37.9189C33.2469 38.4628 29.3756 42.2062 20.0013 46.9093Z" fill="white"/>
<path d="M19.7455 50.6526C19.4895 50.6526 19.2336 50.5566 19.0736 50.3647L15.5862 46.8773C15.5222 46.8133 15.4902 46.7493 15.4902 46.6533C15.4902 46.5574 15.5222 46.4934 15.5862 46.4294L27.0721 34.9435C27.1361 34.8795 27.2321 34.8475 27.2961 34.8475L31.2634 34.9115C31.3594 34.9115 31.4234 34.9435 31.4874 35.0074L34.1749 37.695C34.2389 37.7589 34.2708 37.8549 34.2708 37.9509C34.2708 38.0469 34.2389 38.1109 34.1429 38.1749L33.9189 38.3668C30.5275 41.3423 25.9204 44.3178 20.1934 47.1653L20.7373 49.4368C20.8333 49.8528 20.6413 50.3007 20.2574 50.5246C20.0654 50.6206 19.9054 50.6526 19.7455 50.6526ZM16.2261 46.6533L19.5215 49.9168C19.6175 50.0767 19.8095 50.1407 19.9694 50.0447C20.1294 49.9488 20.1934 49.7568 20.0974 49.5968L19.5535 47.2932C19.4895 47.0053 19.6175 46.7493 19.8734 46.6213C25.5364 43.7739 30.1116 40.8304 33.471 37.9189L31.1034 35.5513L27.4241 35.4874L16.2261 46.6533Z" fill="#FF6C37"/>
<path d="M13.0279 49.4049L15.7794 46.6534L19.8747 50.7486L13.3479 50.3007C13.0599 50.2687 12.868 50.0128 12.9 49.7248C12.9 49.5969 12.932 49.4689 13.0279 49.4049Z" fill="white"/>
<path d="M19.8738 51.0366L13.315 50.5887C12.8351 50.5567 12.5151 50.1408 12.5471 49.6608C12.5791 49.4689 12.6431 49.2769 12.8031 49.1489L15.5546 46.3974C15.6826 46.2695 15.8745 46.2695 16.0025 46.3974L20.0978 50.4927C20.1937 50.5887 20.2257 50.7167 20.1617 50.8446C20.0978 50.9726 20.0018 51.0366 19.8738 51.0366ZM15.7785 47.1013L13.251 49.6288C13.155 49.6928 13.155 49.8528 13.251 49.9168C13.283 49.9488 13.315 49.9808 13.379 49.9808L19.042 50.3647L15.7785 47.1013Z" fill="#FF6C37"/>
<path d="M26.1129 36.6392C25.9209 36.6392 25.793 36.4792 25.793 36.3193C25.793 36.2233 25.825 36.1593 25.889 36.0953L28.9924 32.9919C29.1204 32.8639 29.3123 32.8639 29.4403 32.9919L31.4559 35.0075C31.5519 35.1035 31.5839 35.1995 31.5519 35.3274C31.5199 35.4234 31.424 35.5194 31.296 35.5514L26.1769 36.6392C26.1449 36.6392 26.1129 36.6392 26.1129 36.6392ZM29.2164 33.6637L27.1047 35.7754L30.5601 35.0395L29.2164 33.6637Z" fill="#FF6C37"/>
<path d="M31.2006 35.2314L27.6812 35.9993C27.4252 36.0633 27.1693 35.9033 27.1053 35.6474C27.0733 35.4874 27.1053 35.3274 27.2333 35.1995L29.1849 33.2478L31.2006 35.2314Z" fill="white"/>
<path d="M27.6163 36.3193C27.1683 36.3193 26.8164 35.9673 26.8164 35.5194C26.8164 35.2954 26.9124 35.1035 27.0404 34.9435L28.992 32.9919C29.12 32.8639 29.312 32.8639 29.4399 32.9919L31.4556 35.0075C31.5516 35.1035 31.5835 35.1995 31.5516 35.3274C31.5196 35.4234 31.4236 35.5194 31.2956 35.5514L27.7762 36.3193C27.7122 36.3193 27.6483 36.3193 27.6163 36.3193ZM29.216 33.6637L27.4883 35.3914C27.4243 35.4554 27.4243 35.5194 27.4563 35.5834C27.4883 35.6474 27.5523 35.6794 27.6483 35.6794L30.5917 35.0395L29.216 33.6637Z" fill="#FF6C37"/>
<path d="M50.813 16.2269C50.749 16.0349 50.525 15.9389 50.3331 16.0029C50.1411 16.0669 50.0451 16.2908 50.1091 16.4828C50.1091 16.5148 50.1411 16.5468 50.1411 16.5788C50.3331 16.9627 50.2691 17.4426 50.0131 17.7946C49.8851 17.9545 49.9171 18.1785 50.0451 18.3065C50.2051 18.4345 50.429 18.4025 50.557 18.2425C51.0369 17.6346 51.1329 16.8667 50.813 16.2269Z" fill="#FF6C37"/>
</svg>
