<svg width="64" height="64" viewBox="0 0 64 64" fill="none" xmlns="http://www.w3.org/2000/svg">
<path d="M44.3452 43.9332C46.7071 43.6889 48.4988 41.6527 48.4174 39.2093C48.3359 36.766 46.2999 34.8113 43.8566 34.8113H43.6937C41.169 34.8927 39.2143 37.0103 39.2958 39.5351C39.3772 40.7568 39.8659 41.8156 40.5989 42.5486C37.8298 48.0055 33.5948 51.9963 27.2423 55.3356C22.9258 57.6161 18.4465 58.4305 13.9671 57.8604C10.3022 57.3717 7.4517 55.7428 5.65996 53.0551C3.05379 49.0643 2.80947 44.7476 5.00842 40.431C6.55583 37.3361 8.99911 35.0556 10.5465 33.9154C10.2208 32.8566 9.7321 31.0648 9.48777 29.7616C-2.32142 38.3134 -1.09978 49.8787 2.4837 55.3356C5.1713 59.4079 10.628 61.9327 16.6547 61.9327C18.2836 61.9327 19.9124 61.7698 21.5413 61.3626C31.9659 59.3264 39.8659 53.1365 44.3452 43.9332ZM58.6792 33.8339C52.4895 26.5853 43.3679 22.5944 32.9433 22.5944H31.6402C30.9072 21.1284 29.3598 20.1511 27.6495 20.1511H27.4866C24.9619 20.2325 23.0073 22.3501 23.0887 24.8749C23.1701 27.3183 25.2062 29.273 27.6495 29.273H27.8124C29.6041 29.1915 31.1515 28.0513 31.8031 26.5038H33.269C39.4587 26.5038 45.3226 28.2956 50.6163 31.7978C54.6885 34.4855 57.6204 37.9877 59.2493 42.2228C60.6338 45.6435 60.5523 48.9828 59.0864 51.8334C56.806 56.15 52.9782 58.512 47.9287 58.512C44.671 58.512 41.5762 57.5346 39.9473 56.8016C39.0515 57.6161 37.4226 58.9192 36.2824 59.7336C39.7844 61.3626 43.3679 62.2585 46.7885 62.2585C54.607 62.2585 60.3894 57.9418 62.5884 53.6252C64.9502 48.9014 64.7874 40.7568 58.6792 33.8339ZM17.3063 45.3178C17.3877 47.7611 19.4238 49.7158 21.8671 49.7158H22.0299C24.5547 49.6344 26.5093 47.5168 26.4278 44.992C26.3464 42.5486 24.3103 40.5939 21.8671 40.5939H21.7042C21.5413 40.5939 21.297 40.5939 21.1341 40.6754C17.7949 35.1371 16.4104 29.1101 16.8991 22.5944C17.2248 17.7077 18.8537 13.4725 21.7042 9.97035C24.066 6.95686 28.6268 5.49084 31.7216 5.40939C40.3545 5.2465 44.0195 15.9973 44.2638 20.3139C45.3225 20.5583 47.1143 21.1284 48.3359 21.5356C47.3586 8.34143 39.2143 1.5 31.3959 1.5C24.066 1.5 17.3063 6.79397 14.6187 14.6128C10.8723 25.0378 13.3156 35.0556 17.8764 42.9558C17.4692 43.526 17.2248 44.4219 17.3063 45.3178Z" fill="#764ABC"/>
</svg>
