<svg width="64" height="64" viewBox="0 0 64 64" fill="none" xmlns="http://www.w3.org/2000/svg">
<g clip-path="url(#clip0_2119_5192)">
<path d="M54.4 0H9.6C4.29807 0 0 4.29807 0 9.6V54.4C0 59.7019 4.29807 64 9.6 64H54.4C59.7019 64 64 59.7019 64 54.4V9.6C64 4.29807 59.7019 0 54.4 0Z" fill="#0079BF"/>
<path d="M49.125 11.875H38.375C36.7872 11.875 35.5 13.1622 35.5 14.75V32.5C35.5 34.0878 36.7872 35.375 38.375 35.375H49.125C50.7128 35.375 52 34.0878 52 32.5V14.75C52 13.1622 50.7128 11.875 49.125 11.875Z" fill="white"/>
<path d="M25.75 11.875H15C13.4122 11.875 12.125 13.1622 12.125 14.75V46C12.125 47.5878 13.4122 48.875 15 48.875H25.75C27.3378 48.875 28.625 47.5878 28.625 46V14.75C28.625 13.1622 27.3378 11.875 25.75 11.875Z" fill="white"/>
</g>
<defs>
<clipPath id="clip0_2119_5192">
<rect width="64" height="64" fill="white"/>
</clipPath>
</defs>
</svg>
