<svg width="512" height="512" viewBox="0 0 512 512" fill="none" xmlns="http://www.w3.org/2000/svg">
<g clip-path="url(#clip0_2163_16865)">
<mask id="mask0_2163_16865" style="mask-type:luminance" maskUnits="userSpaceOnUse" x="-1" y="0" width="513" height="512">
<path d="M-0.0292969 50C-0.0292969 22.3857 22.3565 0 49.9707 0H461.892C489.507 0 511.892 22.3858 511.892 50V461.922C511.892 489.536 489.507 511.922 461.892 511.922H49.9707C22.3564 511.922 -0.0292969 489.536 -0.0292969 461.922V50Z" fill="white"/>
</mask>
<g mask="url(#mask0_2163_16865)">
<path fill-rule="evenodd" clip-rule="evenodd" d="M-192 50C-192 22.3857 -169.614 0 -142 0H653.966C681.58 0 703.966 22.3858 703.966 50V461.922C703.966 489.536 681.58 511.922 653.966 511.922H-142C-169.614 511.922 -192 489.536 -192 461.922V50Z" fill="white"/>
<path fill-rule="evenodd" clip-rule="evenodd" d="M-192 393.793C-192 366.179 -169.614 343.793 -142 343.793H653.966C681.58 343.793 703.966 366.179 703.966 393.793V462.025C703.966 489.64 681.58 512.025 653.966 512.025H-142C-169.614 512.025 -192 489.639 -192 462.025V393.793Z" fill="#DA0000"/>
<path fill-rule="evenodd" clip-rule="evenodd" d="M-21.7031 352.617C-21.7031 351.677 -20.9407 350.914 -20.0002 350.914H25.7219C26.6624 350.914 27.4248 351.677 27.4248 352.617C27.4248 353.558 26.6624 354.32 25.7219 354.32H-20.0002C-20.9407 354.32 -21.7031 353.558 -21.7031 352.617ZM-14.4252 369.44C-14.3973 368.549 -13.6666 367.84 -12.7746 367.84H-12.6207C-11.7086 367.84 -10.9693 368.58 -10.9693 369.492C-10.9693 370.404 -11.7086 371.143 -12.6207 371.143H-12.7746C-13.7069 371.143 -14.4543 370.372 -14.4252 369.44ZM25.8251 367.737C26.7656 367.737 27.528 368.5 27.528 369.44C27.528 370.381 26.7656 371.143 25.8251 371.143H19.4261C18.4855 371.143 17.7231 370.381 17.7231 369.44C17.7231 368.5 18.4855 367.737 19.4261 367.737H25.8251ZM32.7918 352.617C32.7918 351.677 33.5542 350.914 34.4947 350.914C35.4353 350.914 36.1977 351.677 36.1977 352.617V369.44C36.1977 370.381 35.4353 371.143 34.4947 371.143C33.5542 371.143 32.7918 370.381 32.7918 369.44V352.617Z" fill="white"/>
<path fill-rule="evenodd" clip-rule="evenodd" d="M50.595 367.737C51.5356 367.737 52.298 368.5 52.298 369.44C52.298 370.381 51.5356 371.143 50.595 371.143H35.4232C34.4827 371.143 33.7202 370.381 33.7202 369.44C33.7202 368.5 34.4827 367.737 35.4232 367.737H50.595ZM17.7227 361.597C17.7227 360.656 18.4851 359.894 19.4256 359.894C20.3661 359.894 21.1286 360.656 21.1286 361.597V369.44C21.1286 370.381 20.3661 371.143 19.4256 371.143C18.4851 371.143 17.7227 370.381 17.7227 369.44V361.597Z" fill="white"/>
<path fill-rule="evenodd" clip-rule="evenodd" d="M49.5205 352.621C49.5157 351.68 50.2776 350.914 51.2191 350.914C52.1572 350.914 52.9177 351.675 52.9177 352.613V369.488C52.9177 370.402 52.1765 371.143 51.2621 371.143C50.3511 371.143 49.6112 370.407 49.6066 369.496L49.5205 352.621ZM41.1602 352.57C41.1555 351.657 41.8944 350.914 42.8073 350.914C43.717 350.914 44.4545 351.652 44.4545 352.561V369.539C44.4545 370.425 43.7364 371.143 42.8506 371.143C41.9681 371.143 41.2513 370.43 41.2468 369.548L41.1602 352.57ZM-5.34435 358.964C-4.40382 358.964 -3.64138 359.727 -3.64138 360.667C-3.64138 361.608 -4.40382 362.37 -5.34435 362.37H-20.0002C-20.9407 362.37 -21.7031 361.608 -21.7031 360.667C-21.7031 359.727 -20.9407 358.964 -20.0001 358.964H-5.34435ZM33.8755 358.964C34.816 358.964 35.5784 359.727 35.5784 360.667C35.5784 361.608 34.816 362.37 33.8754 362.37H19.4261C18.4855 362.37 17.7231 361.608 17.7231 360.667C17.7231 359.727 18.4855 358.964 19.4261 358.964H33.8755Z" fill="white"/>
<path fill-rule="evenodd" clip-rule="evenodd" d="M17.7227 361.493C17.7227 360.552 18.4851 359.79 19.4256 359.79C20.3661 359.79 21.1286 360.552 21.1286 361.493V369.44C21.1286 370.381 20.3661 371.143 19.4256 371.143C18.4851 371.143 17.7227 370.381 17.7227 369.44V361.493Z" fill="white"/>
<path fill-rule="evenodd" clip-rule="evenodd" d="M17.7227 361.493C17.7227 360.552 18.4851 359.79 19.4256 359.79C20.3661 359.79 21.1286 360.552 21.1286 361.493V369.44C21.1286 370.381 20.3661 371.143 19.4256 371.143C18.4851 371.143 17.7227 370.381 17.7227 369.44V361.493Z" fill="white"/>
<path fill-rule="evenodd" clip-rule="evenodd" d="M17.7231 361.493C17.7231 360.552 18.4855 359.79 19.4261 359.79C20.3666 359.79 21.129 360.552 21.129 361.493V369.44C21.129 370.381 20.3666 371.143 19.4261 371.143C18.4855 371.143 17.7231 370.381 17.7231 369.44V361.493ZM-21.5265 361.426C-21.5099 360.518 -20.7689 359.79 -19.8604 359.79C-18.9401 359.79 -18.194 360.536 -18.194 361.456V369.405C-18.194 370.365 -18.9724 371.143 -19.9326 371.143C-20.9052 371.143 -21.6886 370.345 -21.6709 369.373L-21.5265 361.426ZM7.19567 361.493C7.19567 360.552 7.95812 359.79 8.89864 359.79C9.83916 359.79 10.6016 360.552 10.6016 361.493V369.44C10.6016 370.381 9.83916 371.143 8.89864 371.143C7.95812 371.143 7.19567 370.381 7.19567 369.44V361.493ZM-7.04731 361.493C-7.04731 360.552 -6.28486 359.79 -5.34434 359.79C-4.40382 359.79 -3.64138 360.552 -3.64138 361.493V369.44C-3.64138 370.381 -4.40382 371.143 -5.34434 371.143C-6.28486 371.143 -7.04731 370.381 -7.04731 369.44V361.493Z" fill="white"/>
<path fill-rule="evenodd" clip-rule="evenodd" d="M7.86733 367.738C8.80786 367.738 9.5703 368.5 9.5703 369.441C9.5703 370.381 8.80786 371.144 7.86733 371.144H-3.89859C-4.83912 371.144 -5.60156 370.381 -5.60156 369.441C-5.60156 368.5 -4.83911 367.738 -3.89859 367.738H7.86733ZM8.89943 358.965C9.83996 358.965 10.6024 359.727 10.6024 360.668C10.6024 361.608 9.83996 362.371 8.89943 362.371H2.70684C1.76632 362.371 1.00387 361.608 1.00387 360.668C1.00387 359.727 1.76632 358.965 2.70685 358.965H8.89943Z" fill="white"/>
<path fill-rule="evenodd" clip-rule="evenodd" d="M58.2852 352.617C58.2852 351.677 59.0476 350.914 59.9881 350.914H105.607C106.547 350.914 107.31 351.677 107.31 352.617C107.31 353.558 106.547 354.32 105.607 354.32H59.9881C59.0476 354.32 58.2852 353.558 58.2852 352.617ZM65.5631 369.543C65.534 368.612 66.2814 367.84 67.2136 367.84H67.2644C68.1764 367.84 68.9158 368.58 68.9158 369.492C68.9158 370.404 68.1764 371.143 67.2644 371.143H67.2136C66.3217 371.143 65.5909 370.435 65.5631 369.543ZM105.71 367.737C106.651 367.737 107.413 368.5 107.413 369.44C107.413 370.381 106.651 371.143 105.71 371.143H99.3111C98.3706 371.143 97.6082 370.381 97.6082 369.44C97.6082 368.5 98.3706 367.737 99.3111 367.737H105.71ZM112.677 352.617C112.677 351.676 113.439 350.914 114.38 350.914C115.32 350.914 116.083 351.677 116.083 352.617V369.44C116.083 370.381 115.32 371.143 114.38 371.143C113.439 371.143 112.677 370.381 112.677 369.44V352.617Z" fill="white"/>
<path fill-rule="evenodd" clip-rule="evenodd" d="M130.583 367.737C131.524 367.737 132.286 368.5 132.286 369.44C132.286 370.381 131.524 371.143 130.583 371.143H115.411C114.471 371.143 113.708 370.381 113.708 369.44C113.708 368.5 114.471 367.737 115.411 367.737H130.583ZM97.6074 361.597C97.6074 360.656 98.3699 359.894 99.3104 359.894C100.251 359.894 101.013 360.656 101.013 361.597V369.44C101.013 370.381 100.251 371.143 99.3104 371.143C98.3699 371.143 97.6074 370.381 97.6074 369.44V361.597Z" fill="white"/>
<path fill-rule="evenodd" clip-rule="evenodd" d="M129.5 352.617C129.5 351.676 130.263 350.914 131.203 350.914C132.144 350.914 132.906 351.677 132.906 352.617V369.44C132.906 370.381 132.144 371.143 131.203 371.143C130.263 371.143 129.5 370.381 129.5 369.44V352.617ZM121.037 352.617C121.037 351.677 121.8 350.914 122.74 350.914C123.681 350.914 124.443 351.677 124.443 352.617V369.44C124.443 370.381 123.681 371.143 122.74 371.143C121.8 371.143 121.037 370.381 121.037 369.44V352.617ZM74.541 358.964C75.4815 358.964 76.244 359.727 76.244 360.667C76.244 361.608 75.4815 362.37 74.541 362.37H60.0916C59.1511 362.37 58.3887 361.608 58.3887 360.667C58.3887 359.727 59.1511 358.964 60.0916 358.964H74.541ZM113.761 358.964C114.701 358.964 115.464 359.727 115.464 360.667C115.464 361.608 114.701 362.37 113.761 362.37H99.3114C98.3709 362.37 97.6085 361.608 97.6085 360.667C97.6085 359.727 98.3709 358.964 99.3114 358.964H113.761Z" fill="white"/>
<path fill-rule="evenodd" clip-rule="evenodd" d="M97.6074 361.493C97.6074 360.552 98.3699 359.79 99.3104 359.79C100.251 359.79 101.013 360.552 101.013 361.493V369.44C101.013 370.381 100.251 371.143 99.3104 371.143C98.3699 371.143 97.6074 370.381 97.6074 369.44V361.493Z" fill="white"/>
<path fill-rule="evenodd" clip-rule="evenodd" d="M97.6074 361.493C97.6074 360.552 98.3699 359.79 99.3104 359.79C100.251 359.79 101.013 360.552 101.013 361.493V369.44C101.013 370.381 100.251 371.143 99.3104 371.143C98.3699 371.143 97.6074 370.381 97.6074 369.44V361.493Z" fill="white"/>
<path fill-rule="evenodd" clip-rule="evenodd" d="M97.6085 361.493C97.6085 360.552 98.3709 359.79 99.3114 359.79C100.252 359.79 101.014 360.552 101.014 361.493V369.44C101.014 370.381 100.252 371.143 99.3114 371.143C98.3709 371.143 97.6085 370.381 97.6085 369.44V361.493ZM58.3887 361.441C58.3887 360.529 59.128 359.79 60.04 359.79C60.9521 359.79 61.6914 360.529 61.6914 361.441V369.492C61.6914 370.404 60.9521 371.143 60.04 371.143C59.128 371.143 58.3887 370.404 58.3887 369.492V361.441ZM87.1843 361.441C87.1843 360.529 87.9236 359.79 88.8356 359.79C89.7476 359.79 90.487 360.529 90.487 361.441V369.492C90.487 370.404 89.7476 371.143 88.8356 371.143C87.9236 371.143 87.1843 370.404 87.1843 369.492V361.441ZM72.8381 361.493C72.8381 360.552 73.6005 359.79 74.541 359.79C75.4815 359.79 76.244 360.552 76.244 361.493V369.44C76.244 370.381 75.4815 371.143 74.541 371.143C73.6005 371.143 72.8381 370.381 72.8381 369.44V361.493Z" fill="white"/>
<path fill-rule="evenodd" clip-rule="evenodd" d="M87.8553 367.738C88.7958 367.738 89.5583 368.5 89.5583 369.441C89.5583 370.381 88.7958 371.144 87.8553 371.144H75.9862C75.0457 371.144 74.2832 370.381 74.2832 369.441C74.2832 368.5 75.0457 367.738 75.9862 367.738H87.8553ZM88.8874 358.965C89.8279 358.965 90.5904 359.727 90.5904 360.668C90.5904 361.608 89.8279 362.371 88.8874 362.371H82.5916C81.6511 362.371 80.8886 361.608 80.8886 360.668C80.8886 359.727 81.6511 358.965 82.5916 358.965H88.8874Z" fill="white"/>
<path fill-rule="evenodd" clip-rule="evenodd" d="M138.686 352.617C138.686 351.677 139.448 350.914 140.389 350.914H186.007C186.948 350.914 187.71 351.677 187.71 352.617C187.71 353.558 186.948 354.32 186.007 354.32H140.389C139.448 354.32 138.686 353.558 138.686 352.617ZM146.013 369.492C146.013 368.58 146.753 367.84 147.665 367.84H147.768C148.68 367.84 149.419 368.58 149.419 369.492C149.419 370.404 148.68 371.143 147.768 371.143H147.665C146.753 371.143 146.013 370.404 146.013 369.492ZM186.214 367.737C187.154 367.737 187.917 368.5 187.917 369.44C187.917 370.381 187.154 371.143 186.214 371.143H179.815C178.874 371.143 178.112 370.381 178.112 369.44C178.112 368.5 178.874 367.737 179.815 367.737H186.214ZM193.086 352.621C193.081 351.68 193.843 350.914 194.785 350.914C195.723 350.914 196.483 351.675 196.483 352.613V369.488C196.483 370.402 195.742 371.143 194.828 371.143C193.917 371.143 193.177 370.407 193.172 369.496L193.086 352.621Z" fill="white"/>
<path fill-rule="evenodd" clip-rule="evenodd" d="M210.984 367.737C211.924 367.737 212.687 368.5 212.687 369.44C212.687 370.381 211.924 371.143 210.984 371.143H195.812C194.871 371.143 194.109 370.381 194.109 369.44C194.109 368.5 194.871 367.737 195.812 367.737H210.984ZM178.111 361.545C178.111 360.633 178.851 359.894 179.763 359.894C180.675 359.894 181.414 360.633 181.414 361.545V369.492C181.414 370.404 180.675 371.143 179.763 371.143C178.851 371.143 178.111 370.404 178.111 369.492V361.545Z" fill="white"/>
<path fill-rule="evenodd" clip-rule="evenodd" d="M209.901 352.617C209.901 351.677 210.663 350.914 211.604 350.914C212.544 350.914 213.307 351.677 213.307 352.617V369.44C213.307 370.381 212.544 371.143 211.604 371.143C210.663 371.143 209.901 370.381 209.901 369.44V352.617ZM201.532 352.561C201.537 351.65 202.277 350.914 203.188 350.914C204.102 350.914 204.843 351.655 204.843 352.57V369.445C204.843 370.383 204.083 371.143 203.145 371.143C202.203 371.143 201.441 370.377 201.446 369.436L201.532 352.561ZM154.941 358.964C155.882 358.964 156.644 359.727 156.644 360.667C156.644 361.608 155.882 362.37 154.941 362.37H140.492C139.552 362.37 138.789 361.608 138.789 360.667C138.789 359.727 139.552 358.964 140.492 358.964H154.941ZM194.264 358.964C195.205 358.964 195.967 359.727 195.967 360.667C195.967 361.608 195.205 362.37 194.264 362.37H179.815C178.875 362.37 178.112 361.608 178.112 360.667C178.112 359.727 178.875 358.964 179.815 358.964H194.264Z" fill="white"/>
<path fill-rule="evenodd" clip-rule="evenodd" d="M178.111 361.441C178.111 360.529 178.851 359.79 179.763 359.79C180.675 359.79 181.414 360.529 181.414 361.441V369.492C181.414 370.404 180.675 371.143 179.763 371.143C178.851 371.143 178.111 370.404 178.111 369.492V361.441Z" fill="white"/>
<path fill-rule="evenodd" clip-rule="evenodd" d="M178.111 361.441C178.111 360.529 178.851 359.79 179.763 359.79C180.675 359.79 181.414 360.529 181.414 361.441V369.492C181.414 370.404 180.675 371.143 179.763 371.143C178.851 371.143 178.111 370.404 178.111 369.492V361.441Z" fill="white"/>
<path fill-rule="evenodd" clip-rule="evenodd" d="M178.112 361.441C178.112 360.529 178.851 359.79 179.763 359.79C180.675 359.79 181.415 360.529 181.415 361.441V369.492C181.415 370.404 180.675 371.143 179.763 371.143C178.851 371.143 178.112 370.404 178.112 369.492V361.441ZM138.789 361.493C138.789 360.552 139.552 359.79 140.492 359.79C141.433 359.79 142.195 360.552 142.195 361.493V369.44C142.195 370.381 141.433 371.143 140.492 371.143C139.552 371.143 138.789 370.381 138.789 369.44V361.493ZM167.585 361.493C167.585 360.552 168.347 359.79 169.288 359.79C170.228 359.79 170.991 360.552 170.991 361.493V369.44C170.991 370.381 170.228 371.143 169.288 371.143C168.347 371.143 167.585 370.381 167.585 369.44V361.493ZM153.342 361.493C153.342 360.552 154.104 359.79 155.045 359.79C155.985 359.79 156.748 360.552 156.748 361.493V369.44C156.748 370.381 155.985 371.143 155.045 371.143C154.104 371.143 153.342 370.381 153.342 369.44V361.493Z" fill="white"/>
<path fill-rule="evenodd" clip-rule="evenodd" d="M168.256 367.738C169.197 367.738 169.959 368.5 169.959 369.441C169.959 370.381 169.197 371.144 168.256 371.144H156.49C155.55 371.144 154.787 370.381 154.787 369.441C154.787 368.5 155.55 367.738 156.49 367.738H168.256ZM169.288 358.965C170.229 358.965 170.991 359.727 170.991 360.668C170.991 361.608 170.229 362.371 169.288 362.371H163.096C162.155 362.371 161.393 361.608 161.393 360.668C161.393 359.727 162.155 358.965 163.096 358.965H169.288Z" fill="white"/>
<path fill-rule="evenodd" clip-rule="evenodd" d="M219.395 352.617C219.395 351.677 220.157 350.914 221.097 350.914H266.82C267.76 350.914 268.523 351.677 268.523 352.617C268.523 353.558 267.76 354.32 266.82 354.32H221.097C220.157 354.32 219.395 353.558 219.395 352.617ZM226.722 369.492C226.722 368.58 227.462 367.84 228.374 367.84H228.477C229.389 367.84 230.128 368.58 230.128 369.492C230.128 370.404 229.389 371.143 228.477 371.143H228.374C227.462 371.143 226.722 370.404 226.722 369.492ZM266.923 367.737C267.863 367.737 268.626 368.5 268.626 369.44C268.626 370.381 267.863 371.143 266.923 371.143H260.524C259.583 371.143 258.821 370.381 258.821 369.44C258.821 368.5 259.583 367.737 260.524 367.737H266.923ZM273.889 352.617C273.889 351.677 274.652 350.914 275.592 350.914C276.533 350.914 277.295 351.677 277.295 352.617V369.44C277.295 370.381 276.533 371.143 275.592 371.143C274.652 371.143 273.889 370.381 273.889 369.44V352.617Z" fill="white"/>
<path fill-rule="evenodd" clip-rule="evenodd" d="M291.693 367.737C292.633 367.737 293.396 368.5 293.396 369.44C293.396 370.381 292.633 371.143 291.693 371.143H276.521C275.58 371.143 274.818 370.381 274.818 369.44C274.818 368.5 275.58 367.737 276.521 367.737H291.693ZM258.82 361.597C258.82 360.656 259.583 359.894 260.523 359.894C261.464 359.894 262.226 360.656 262.226 361.597V369.44C262.226 370.381 261.464 371.143 260.523 371.143C259.583 371.143 258.82 370.381 258.82 369.44V361.597Z" fill="white"/>
<path fill-rule="evenodd" clip-rule="evenodd" d="M290.61 352.617C290.61 351.676 291.372 350.914 292.313 350.914C293.253 350.914 294.016 351.677 294.016 352.617V369.44C294.016 370.381 293.253 371.143 292.313 371.143C291.372 371.143 290.61 370.381 290.61 369.44V352.617ZM282.25 352.565C282.25 351.653 282.989 350.914 283.901 350.914C284.813 350.914 285.552 351.653 285.552 352.565V369.492C285.552 370.404 284.813 371.143 283.901 371.143C282.989 371.143 282.25 370.404 282.25 369.492V352.565ZM235.754 358.964C236.694 358.964 237.457 359.727 237.457 360.667C237.457 361.608 236.694 362.37 235.754 362.37H221.201C220.26 362.37 219.498 361.608 219.498 360.667C219.498 359.727 220.26 358.964 221.201 358.964H235.754ZM274.973 358.964C275.914 358.964 276.676 359.727 276.676 360.667C276.676 361.608 275.914 362.37 274.973 362.37H260.524C259.583 362.37 258.821 361.608 258.821 360.667C258.821 359.727 259.583 358.964 260.524 358.964H274.973Z" fill="white"/>
<path fill-rule="evenodd" clip-rule="evenodd" d="M258.82 361.493C258.82 360.552 259.583 359.79 260.523 359.79C261.464 359.79 262.226 360.552 262.226 361.493V369.44C262.226 370.381 261.464 371.143 260.523 371.143C259.583 371.143 258.82 370.381 258.82 369.44V361.493Z" fill="white"/>
<path fill-rule="evenodd" clip-rule="evenodd" d="M258.82 361.493C258.82 360.552 259.583 359.79 260.523 359.79C261.464 359.79 262.226 360.552 262.226 361.493V369.44C262.226 370.381 261.464 371.143 260.523 371.143C259.583 371.143 258.82 370.381 258.82 369.44V361.493Z" fill="white"/>
<path fill-rule="evenodd" clip-rule="evenodd" d="M258.821 361.493C258.821 360.552 259.583 359.79 260.524 359.79C261.465 359.79 262.227 360.552 262.227 361.493V369.44C262.227 370.381 261.465 371.143 260.524 371.143C259.583 371.143 258.821 370.381 258.821 369.44V361.493ZM219.586 361.434C219.595 360.524 220.335 359.79 221.245 359.79C222.161 359.79 222.904 360.533 222.904 361.449V369.448C222.904 370.384 222.145 371.143 221.209 371.143C220.266 371.143 219.505 370.375 219.514 369.433L219.586 361.434ZM248.294 361.493C248.294 360.552 249.056 359.79 249.997 359.79C250.937 359.79 251.7 360.552 251.7 361.493V369.44C251.7 370.381 250.937 371.143 249.997 371.143C249.056 371.143 248.294 370.381 248.294 369.44V361.493ZM234.051 361.493C234.051 360.552 234.813 359.79 235.754 359.79C236.694 359.79 237.457 360.552 237.457 361.493V369.44C237.457 370.381 236.694 371.143 235.754 371.143C234.813 371.143 234.051 370.381 234.051 369.44V361.493Z" fill="white"/>
<path fill-rule="evenodd" clip-rule="evenodd" d="M249.067 367.738C250.007 367.738 250.77 368.5 250.77 369.441C250.77 370.381 250.007 371.144 249.067 371.144H237.301C236.36 371.144 235.598 370.381 235.598 369.441C235.598 368.5 236.36 367.738 237.301 367.738H249.067ZM249.995 358.965C250.936 358.965 251.698 359.727 251.698 360.668C251.698 361.608 250.936 362.371 249.995 362.371H243.803C242.862 362.371 242.1 361.608 242.1 360.668C242.1 359.727 242.862 358.965 243.803 358.965H249.995Z" fill="white"/>
<path fill-rule="evenodd" clip-rule="evenodd" d="M-192 50C-192 22.3857 -169.614 0 -142 0H653.966C681.58 0 703.966 22.3858 703.966 50V118.232C703.966 145.847 681.58 168.232 653.966 168.232H-142C-169.614 168.232 -192 145.847 -192 118.232V50Z" fill="#239F40"/>
<path fill-rule="evenodd" clip-rule="evenodd" d="M300.621 352.617C300.621 351.677 301.384 350.914 302.324 350.914H347.943C348.883 350.914 349.646 351.677 349.646 352.617C349.646 353.558 348.883 354.32 347.943 354.32H302.324C301.384 354.32 300.621 353.558 300.621 352.617ZM307.949 369.492C307.949 368.58 308.688 367.84 309.6 367.84H309.704C310.616 367.84 311.355 368.58 311.355 369.492C311.355 370.404 310.616 371.143 309.704 371.143H309.6C308.688 371.143 307.949 370.404 307.949 369.492ZM348.149 367.737C349.09 367.737 349.852 368.5 349.852 369.44C349.852 370.381 349.09 371.143 348.149 371.143H341.75C340.81 371.143 340.047 370.381 340.047 369.44C340.047 368.5 340.81 367.737 341.75 367.737H348.149ZM355.013 352.669C355.013 351.7 355.798 350.914 356.767 350.914C357.736 350.914 358.522 351.7 358.522 352.669V369.389C358.522 370.358 357.736 371.143 356.767 371.143C355.798 371.143 355.013 370.358 355.013 369.389V352.669Z" fill="white"/>
<path fill-rule="evenodd" clip-rule="evenodd" d="M372.919 367.737C373.86 367.737 374.622 368.5 374.622 369.44C374.622 370.381 373.86 371.143 372.919 371.143H357.747C356.807 371.143 356.044 370.381 356.044 369.44C356.044 368.5 356.807 367.737 357.747 367.737H372.919ZM340.047 361.545C340.047 360.633 340.786 359.894 341.698 359.894C342.61 359.894 343.35 360.633 343.35 361.545V369.492C343.35 370.404 342.61 371.143 341.698 371.143C340.786 371.143 340.047 370.404 340.047 369.492V361.545Z" fill="white"/>
<path fill-rule="evenodd" clip-rule="evenodd" d="M371.836 352.617C371.836 351.676 372.599 350.914 373.539 350.914C374.48 350.914 375.242 351.677 375.242 352.617V369.44C375.242 370.381 374.48 371.143 373.539 371.143C372.599 371.143 371.836 370.381 371.836 369.44V352.617ZM363.476 352.565C363.476 351.653 364.216 350.914 365.128 350.914C366.04 350.914 366.779 351.653 366.779 352.565V369.492C366.779 370.404 366.04 371.143 365.128 371.143C364.216 371.143 363.476 370.404 363.476 369.492V352.565ZM316.98 358.964C317.921 358.964 318.683 359.727 318.683 360.667C318.683 361.608 317.921 362.37 316.98 362.37H302.428C301.487 362.37 300.725 361.608 300.725 360.667C300.725 359.727 301.487 358.964 302.428 358.964H316.98ZM356.2 358.964C357.14 358.964 357.903 359.727 357.903 360.667C357.903 361.608 357.14 362.37 356.2 362.37H341.751C340.81 362.37 340.048 361.608 340.048 360.667C340.048 359.727 340.81 358.964 341.751 358.964H356.2Z" fill="white"/>
<path fill-rule="evenodd" clip-rule="evenodd" d="M340.047 361.441C340.047 360.529 340.786 359.79 341.698 359.79C342.61 359.79 343.35 360.529 343.35 361.441V369.492C343.35 370.404 342.61 371.143 341.698 371.143C340.786 371.143 340.047 370.404 340.047 369.492V361.441Z" fill="white"/>
<path fill-rule="evenodd" clip-rule="evenodd" d="M340.047 361.441C340.047 360.529 340.786 359.79 341.698 359.79C342.61 359.79 343.35 360.529 343.35 361.441V369.492C343.35 370.404 342.61 371.143 341.698 371.143C340.786 371.143 340.047 370.404 340.047 369.492V361.441Z" fill="white"/>
<path fill-rule="evenodd" clip-rule="evenodd" d="M340.048 361.441C340.048 360.529 340.787 359.79 341.699 359.79C342.611 359.79 343.35 360.529 343.35 361.441V369.492C343.35 370.404 342.611 371.143 341.699 371.143C340.787 371.143 340.048 370.404 340.048 369.492V361.441ZM300.725 361.493C300.725 360.552 301.487 359.79 302.428 359.79C303.368 359.79 304.131 360.552 304.131 361.493V369.44C304.131 370.381 303.368 371.143 302.428 371.143C301.487 371.143 300.725 370.381 300.725 369.44V361.493ZM329.52 361.493C329.52 360.552 330.283 359.79 331.223 359.79C332.164 359.79 332.926 360.552 332.926 361.493V369.44C332.926 370.381 332.164 371.143 331.223 371.143C330.283 371.143 329.52 370.381 329.52 369.44V361.493ZM315.277 361.493C315.277 360.552 316.04 359.79 316.98 359.79C317.921 359.79 318.683 360.552 318.683 361.493V369.44C318.683 370.381 317.921 371.143 316.98 371.143C316.04 371.143 315.277 370.381 315.277 369.44V361.493Z" fill="white"/>
<path fill-rule="evenodd" clip-rule="evenodd" d="M330.192 367.738C331.132 367.738 331.895 368.5 331.895 369.441C331.895 370.381 331.132 371.144 330.192 371.144H318.426C317.485 371.144 316.723 370.381 316.723 369.441C316.723 368.5 317.485 367.738 318.426 367.738H330.192ZM331.224 358.965C332.164 358.965 332.927 359.727 332.927 360.668C332.927 361.608 332.164 362.371 331.224 362.371H325.031C324.091 362.371 323.328 361.608 323.328 360.668C323.328 359.727 324.091 358.965 325.031 358.965H331.224Z" fill="white"/>
<path fill-rule="evenodd" clip-rule="evenodd" d="M381.332 352.617C381.332 351.677 382.094 350.914 383.035 350.914H428.757C429.698 350.914 430.46 351.677 430.46 352.617C430.46 353.558 429.698 354.32 428.757 354.32H383.035C382.094 354.32 381.332 353.558 381.332 352.617ZM388.66 369.492C388.66 368.58 389.399 367.84 390.311 367.84H390.415C391.327 367.84 392.066 368.58 392.066 369.492C392.066 370.404 391.327 371.143 390.415 371.143H390.311C389.399 371.143 388.66 370.404 388.66 369.492ZM428.86 367.737C429.801 367.737 430.563 368.5 430.563 369.44C430.563 370.381 429.801 371.143 428.86 371.143H422.461C421.521 371.143 420.758 370.381 420.758 369.44C420.758 368.5 421.521 367.737 422.461 367.737H428.86ZM435.827 352.617C435.827 351.676 436.589 350.914 437.53 350.914C438.47 350.914 439.233 351.677 439.233 352.617V369.44C439.233 370.381 438.47 371.143 437.53 371.143C436.589 371.143 435.827 370.381 435.827 369.44V352.617Z" fill="white"/>
<path fill-rule="evenodd" clip-rule="evenodd" d="M453.63 367.737C454.571 367.737 455.333 368.5 455.333 369.44C455.333 370.381 454.571 371.143 453.63 371.143H438.458C437.518 371.143 436.755 370.381 436.755 369.44C436.755 368.5 437.518 367.737 438.458 367.737H453.63ZM420.758 361.597C420.758 360.656 421.52 359.894 422.461 359.894C423.401 359.894 424.164 360.656 424.164 361.597V369.44C424.164 370.381 423.401 371.143 422.461 371.143C421.52 371.143 420.758 370.381 420.758 369.44V361.597Z" fill="white"/>
<path fill-rule="evenodd" clip-rule="evenodd" d="M452.65 352.565C452.65 351.653 453.39 350.914 454.302 350.914C455.214 350.914 455.953 351.653 455.953 352.565V369.492C455.953 370.404 455.214 371.143 454.302 371.143C453.39 371.143 452.65 370.404 452.65 369.492V352.565ZM444.187 352.617C444.187 351.676 444.95 350.914 445.89 350.914C446.831 350.914 447.593 351.677 447.593 352.617V369.44C447.593 370.381 446.831 371.143 445.89 371.143C444.95 371.143 444.187 370.381 444.187 369.44V352.617ZM397.691 358.964C398.632 358.964 399.394 359.727 399.394 360.667C399.394 361.608 398.632 362.37 397.691 362.37H383.139C382.198 362.37 381.436 361.608 381.436 360.667C381.436 359.727 382.198 358.964 383.139 358.964H397.691ZM436.911 358.964C437.851 358.964 438.614 359.727 438.614 360.667C438.614 361.608 437.851 362.37 436.911 362.37H422.462C421.521 362.37 420.759 361.608 420.759 360.667C420.759 359.727 421.521 358.964 422.462 358.964H436.911Z" fill="white"/>
<path fill-rule="evenodd" clip-rule="evenodd" d="M420.758 361.493C420.758 360.552 421.52 359.79 422.461 359.79C423.401 359.79 424.164 360.552 424.164 361.493V369.44C424.164 370.381 423.401 371.143 422.461 371.143C421.52 371.143 420.758 370.381 420.758 369.44V361.493Z" fill="white"/>
<path fill-rule="evenodd" clip-rule="evenodd" d="M420.758 361.493C420.758 360.552 421.52 359.79 422.461 359.79C423.401 359.79 424.164 360.552 424.164 361.493V369.44C424.164 370.381 423.401 371.143 422.461 371.143C421.52 371.143 420.758 370.381 420.758 369.44V361.493Z" fill="white"/>
<path fill-rule="evenodd" clip-rule="evenodd" d="M420.759 361.493C420.759 360.552 421.521 359.79 422.462 359.79C423.402 359.79 424.165 360.552 424.165 361.493V369.44C424.165 370.381 423.402 371.143 422.462 371.143C421.521 371.143 420.759 370.381 420.759 369.44V361.493ZM381.524 361.434C381.532 360.524 382.272 359.79 383.183 359.79C384.099 359.79 384.842 360.533 384.842 361.449V369.448C384.842 370.384 384.083 371.143 383.146 371.143C382.204 371.143 381.443 370.375 381.451 369.432L381.524 361.434ZM410.231 361.493C410.231 360.552 410.994 359.79 411.934 359.79C412.875 359.79 413.637 360.552 413.637 361.493V369.44C413.637 370.381 412.875 371.143 411.934 371.143C410.994 371.143 410.231 370.381 410.231 369.44V361.493ZM395.988 361.493C395.988 360.552 396.751 359.79 397.691 359.79C398.632 359.79 399.394 360.552 399.394 361.493V369.44C399.394 370.381 398.632 371.143 397.691 371.143C396.751 371.143 395.988 370.381 395.988 369.44V361.493Z" fill="white"/>
<path fill-rule="evenodd" clip-rule="evenodd" d="M410.901 367.738C411.841 367.738 412.604 368.5 412.604 369.441C412.604 370.381 411.841 371.144 410.901 371.144H399.238C398.298 371.144 397.535 370.381 397.535 369.441C397.535 368.5 398.298 367.738 399.238 367.738H410.901ZM411.933 358.965C412.873 358.965 413.636 359.727 413.636 360.668C413.636 361.608 412.873 362.371 411.933 362.371H405.74C404.8 362.371 404.037 361.608 404.037 360.668C404.037 359.727 404.8 358.965 405.74 358.965H411.933Z" fill="white"/>
<path fill-rule="evenodd" clip-rule="evenodd" d="M462.145 352.617C462.145 351.677 462.907 350.914 463.847 350.914H509.466C510.407 350.914 511.169 351.677 511.169 352.617C511.169 353.558 510.407 354.32 509.466 354.32H463.847C462.907 354.32 462.145 353.558 462.145 352.617ZM469.369 369.492C469.369 368.58 470.109 367.84 471.021 367.84H471.124C472.036 367.84 472.775 368.58 472.775 369.492C472.775 370.404 472.036 371.143 471.124 371.143H471.021C470.109 371.143 469.369 370.404 469.369 369.492ZM509.57 367.737C510.51 367.737 511.273 368.5 511.273 369.44C511.273 370.381 510.51 371.143 509.57 371.143H503.274C502.333 371.143 501.571 370.381 501.571 369.44C501.571 368.5 502.333 367.737 503.274 367.737H509.57ZM516.536 352.617C516.536 351.676 517.299 350.914 518.239 350.914C519.18 350.914 519.942 351.677 519.942 352.617V369.44C519.942 370.381 519.18 371.143 518.239 371.143C517.299 371.143 516.536 370.381 516.536 369.44V352.617Z" fill="white"/>
<path fill-rule="evenodd" clip-rule="evenodd" d="M534.442 367.737C535.383 367.737 536.145 368.5 536.145 369.44C536.145 370.381 535.383 371.143 534.442 371.143H519.271C518.33 371.143 517.568 370.381 517.568 369.44C517.568 368.5 518.33 367.737 519.271 367.737H534.442ZM501.467 361.597C501.467 360.656 502.229 359.894 503.17 359.894C504.11 359.894 504.873 360.656 504.873 361.597V369.44C504.873 370.381 504.11 371.143 503.17 371.143C502.229 371.143 501.467 370.381 501.467 369.44V361.597Z" fill="white"/>
<path fill-rule="evenodd" clip-rule="evenodd" d="M533.359 352.617C533.359 351.676 534.122 350.914 535.062 350.914C536.003 350.914 536.765 351.677 536.765 352.617V369.44C536.765 370.381 536.003 371.143 535.062 371.143C534.122 371.143 533.359 370.381 533.359 369.44V352.617ZM524.896 352.617C524.896 351.677 525.659 350.914 526.599 350.914C527.54 350.914 528.302 351.677 528.302 352.617V369.44C528.302 370.381 527.54 371.143 526.599 371.143C525.659 371.143 524.896 370.381 524.896 369.44V352.617ZM478.4 358.964C479.341 358.964 480.103 359.727 480.103 360.667C480.103 361.608 479.341 362.37 478.4 362.37H463.848C462.907 362.37 462.145 361.608 462.145 360.667C462.145 359.727 462.907 358.964 463.848 358.964H478.4ZM517.62 358.964C518.56 358.964 519.323 359.727 519.323 360.667C519.323 361.608 518.56 362.37 517.62 362.37H503.274C502.333 362.37 501.571 361.608 501.571 360.667C501.571 359.727 502.333 358.964 503.274 358.964H517.62Z" fill="white"/>
<path fill-rule="evenodd" clip-rule="evenodd" d="M501.555 361.434C501.563 360.524 502.304 359.79 503.214 359.79C504.13 359.79 504.873 360.533 504.873 361.449V369.448C504.873 370.384 504.114 371.143 503.177 371.143C502.235 371.143 501.474 370.375 501.482 369.433L501.555 361.434Z" fill="white"/>
<path fill-rule="evenodd" clip-rule="evenodd" d="M501.555 361.434C501.563 360.524 502.304 359.79 503.214 359.79C504.13 359.79 504.873 360.533 504.873 361.449V369.448C504.873 370.384 504.114 371.143 503.177 371.143C502.235 371.143 501.474 370.375 501.482 369.433L501.555 361.434Z" fill="white"/>
<path fill-rule="evenodd" clip-rule="evenodd" d="M501.556 361.434C501.564 360.524 502.304 359.79 503.215 359.79C504.131 359.79 504.873 360.533 504.873 361.449V369.448C504.873 370.384 504.115 371.143 503.178 371.143C502.236 371.143 501.475 370.375 501.483 369.433L501.556 361.434ZM462.145 361.493C462.145 360.552 462.907 359.79 463.847 359.79C464.788 359.79 465.55 360.552 465.55 361.493V369.44C465.55 370.381 464.788 371.143 463.847 371.143C462.907 371.143 462.145 370.381 462.145 369.44V361.493ZM491.028 361.434C491.037 360.524 491.777 359.79 492.687 359.79C493.603 359.79 494.346 360.533 494.346 361.449V369.448C494.346 370.384 493.587 371.143 492.651 371.143C491.709 371.143 490.947 370.375 490.956 369.433L491.028 361.434ZM476.697 361.493C476.697 360.552 477.46 359.79 478.4 359.79C479.341 359.79 480.103 360.552 480.103 361.493V369.44C480.103 370.381 479.341 371.143 478.4 371.143C477.46 371.143 476.697 370.381 476.697 369.44V361.493Z" fill="white"/>
<path fill-rule="evenodd" clip-rule="evenodd" d="M491.612 367.738C492.552 367.738 493.315 368.5 493.315 369.441C493.315 370.381 492.552 371.144 491.612 371.144H479.949C479.009 371.144 478.246 370.381 478.246 369.441C478.246 368.5 479.009 367.738 479.949 367.738H491.612ZM492.644 358.965C493.584 358.965 494.347 359.727 494.347 360.668C494.347 361.608 493.584 362.371 492.644 362.371H486.451C485.511 362.371 484.748 361.608 484.748 360.668C484.748 359.727 485.511 358.965 486.451 358.965H492.644Z" fill="white"/>
<path fill-rule="evenodd" clip-rule="evenodd" d="M-21.7031 145.113C-21.7031 144.201 -20.9638 143.462 -20.0518 143.462H25.7735C26.6855 143.462 27.4248 144.201 27.4248 145.113C27.4248 146.025 26.6855 146.765 25.7735 146.765H-20.0518C-20.9638 146.765 -21.7031 146.025 -21.7031 145.113ZM-14.4252 161.885C-14.3973 160.993 -13.6666 160.285 -12.7747 160.285H-12.6207C-11.7086 160.285 -10.9693 161.024 -10.9693 161.937C-10.9693 162.849 -11.7086 163.588 -12.6206 163.588H-12.7747C-13.7069 163.588 -14.4543 162.817 -14.4252 161.885ZM25.8855 160.268C26.7954 160.277 27.528 161.018 27.528 161.928C27.528 162.845 26.7848 163.588 25.868 163.588H19.4171C18.4815 163.588 17.7231 162.829 17.7231 161.894C17.7231 160.951 18.4924 160.19 19.4349 160.2L25.8855 160.268ZM32.7918 145.165C32.7918 144.224 33.5542 143.462 34.4947 143.462C35.4353 143.462 36.1977 144.224 36.1977 145.165V161.885C36.1977 162.825 35.4353 163.588 34.4947 163.588C33.5542 163.588 32.7918 162.825 32.7918 161.885V145.165Z" fill="white"/>
<path fill-rule="evenodd" clip-rule="evenodd" d="M50.595 160.182C51.5356 160.182 52.298 160.944 52.298 161.885C52.298 162.825 51.5356 163.588 50.595 163.588H35.4232C34.4827 163.588 33.7202 162.825 33.7202 161.885C33.7202 160.944 34.4827 160.182 35.4232 160.182H50.595ZM17.7227 154.041C17.7227 153.1 18.4851 152.338 19.4256 152.338C20.3661 152.338 21.1286 153.1 21.1286 154.041V161.988C21.1286 162.929 20.3661 163.691 19.4256 163.691C18.4851 163.691 17.7227 162.929 17.7227 161.988V154.041Z" fill="white"/>
<path fill-rule="evenodd" clip-rule="evenodd" d="M49.5205 145.169C49.5157 144.228 50.2776 143.462 51.2191 143.462C52.1572 143.462 52.9177 144.222 52.9177 145.161V161.932C52.9177 162.847 52.1765 163.588 51.2621 163.588C50.3511 163.588 49.6112 162.852 49.6065 161.941L49.5205 145.169ZM41.1602 145.117C41.1556 144.205 41.8944 143.462 42.8074 143.462C43.717 143.462 44.4545 144.199 44.4545 145.109V161.984C44.4545 162.87 43.7364 163.588 42.8506 163.588C41.9681 163.588 41.2513 162.875 41.2468 161.992L41.1602 145.117ZM-5.34918 151.419C-4.40757 151.413 -3.64138 152.175 -3.64138 153.117C-3.64138 154.055 -4.40164 154.815 -5.33948 154.815H-20.0471C-20.9617 154.815 -21.7031 154.074 -21.7031 153.159C-21.7031 152.248 -20.9674 151.508 -20.0565 151.503L-5.34918 151.419ZM33.8706 151.419C34.8122 151.414 35.5784 152.175 35.5784 153.117C35.5784 154.055 34.8182 154.815 33.8804 154.815H19.3792C18.4646 154.815 17.7231 154.074 17.7231 153.159C17.7231 152.248 18.4587 151.508 19.3696 151.503L33.8706 151.419Z" fill="white"/>
<path fill-rule="evenodd" clip-rule="evenodd" d="M17.7227 154.041C17.7227 153.1 18.4851 152.338 19.4256 152.338C20.3661 152.338 21.1286 153.1 21.1286 154.041V161.988C21.1286 162.929 20.3661 163.691 19.4256 163.691C18.4851 163.691 17.7227 162.929 17.7227 161.988V154.041Z" fill="white"/>
<path fill-rule="evenodd" clip-rule="evenodd" d="M17.7227 154.041C17.7227 153.1 18.4851 152.338 19.4256 152.338C20.3661 152.338 21.1286 153.1 21.1286 154.041V161.988C21.1286 162.929 20.3661 163.691 19.4256 163.691C18.4851 163.691 17.7227 162.929 17.7227 161.988V154.041Z" fill="white"/>
<path fill-rule="evenodd" clip-rule="evenodd" d="M17.7231 154.041C17.7231 153.1 18.4855 152.338 19.4261 152.338C20.3666 152.338 21.129 153.1 21.129 154.041V161.988C21.129 162.929 20.3666 163.691 19.4261 163.691C18.4855 163.691 17.7231 162.929 17.7231 161.988V154.041ZM-21.5265 153.974C-21.5099 153.066 -20.7689 152.338 -19.8604 152.338C-18.9401 152.338 -18.194 153.084 -18.194 154.004V161.952C-18.194 162.913 -18.9724 163.691 -19.9326 163.691C-20.9052 163.691 -21.6886 162.893 -21.6709 161.921L-21.5265 153.974ZM7.19567 154.041C7.19567 153.1 7.95812 152.338 8.89864 152.338C9.83916 152.338 10.6016 153.1 10.6016 154.041V161.988C10.6016 162.929 9.83916 163.691 8.89864 163.691C7.95812 163.691 7.19567 162.929 7.19567 161.988V154.041ZM-7.04731 154.041C-7.04731 153.1 -6.28486 152.338 -5.34434 152.338C-4.40382 152.338 -3.64138 153.1 -3.64138 154.041V161.988C-3.64138 162.929 -4.40382 163.691 -5.34434 163.691C-6.28486 163.691 -7.04731 162.929 -7.04731 161.988V154.041Z" fill="white"/>
<path fill-rule="evenodd" clip-rule="evenodd" d="M7.86734 160.182C8.80786 160.182 9.5703 160.945 9.5703 161.885C9.5703 162.826 8.80786 163.588 7.86734 163.588H-3.8986C-4.83912 163.588 -5.60156 162.826 -5.60156 161.885C-5.60156 160.945 -4.83912 160.182 -3.89859 160.182H7.86734ZM8.95105 151.513C9.86307 151.513 10.6024 152.252 10.6024 153.164C10.6024 154.076 9.86307 154.815 8.95104 154.815H2.65523C1.74321 154.815 1.00387 154.076 1.00387 153.164C1.00387 152.252 1.74321 151.513 2.65523 151.513H8.95105Z" fill="white"/>
<path fill-rule="evenodd" clip-rule="evenodd" d="M58.2852 145.113C58.2852 144.201 59.0245 143.462 59.9365 143.462H105.659C106.571 143.462 107.31 144.201 107.31 145.113C107.31 146.025 106.571 146.765 105.659 146.765H59.9365C59.0245 146.765 58.2852 146.025 58.2852 145.113ZM65.5631 161.988C65.534 161.056 66.2814 160.285 67.2136 160.285H67.2644C68.1764 160.285 68.9158 161.024 68.9158 161.937C68.9158 162.849 68.1765 163.588 67.2644 163.588H67.2136C66.3217 163.588 65.5909 162.88 65.5631 161.988ZM105.771 160.268C106.68 160.277 107.413 161.018 107.413 161.928C107.413 162.845 106.67 163.588 105.753 163.588H99.3022C98.3666 163.588 97.6082 162.829 97.6082 161.894C97.6082 160.951 98.3775 160.19 99.32 160.2L105.771 160.268ZM112.677 145.165C112.677 144.224 113.439 143.462 114.38 143.462C115.32 143.462 116.083 144.224 116.083 145.165V161.885C116.083 162.825 115.32 163.588 114.38 163.588C113.439 163.588 112.677 162.825 112.677 161.885V145.165Z" fill="white"/>
<path fill-rule="evenodd" clip-rule="evenodd" d="M130.583 160.182C131.524 160.182 132.286 160.944 132.286 161.885C132.286 162.825 131.524 163.588 130.583 163.588H115.411C114.471 163.588 113.708 162.825 113.708 161.885C113.708 160.944 114.471 160.182 115.411 160.182H130.583ZM97.6074 154.041C97.6074 153.1 98.3699 152.338 99.3104 152.338C100.251 152.338 101.013 153.1 101.013 154.041V161.988C101.013 162.929 100.251 163.691 99.3104 163.691C98.3699 163.691 97.6074 162.929 97.6074 161.988V154.041Z" fill="white"/>
<path fill-rule="evenodd" clip-rule="evenodd" d="M129.5 145.165C129.5 144.224 130.263 143.462 131.203 143.462C132.144 143.462 132.906 144.224 132.906 145.165V161.885C132.906 162.825 132.144 163.588 131.203 163.588C130.263 163.588 129.5 162.825 129.5 161.885V145.165ZM121.037 145.165C121.037 144.224 121.8 143.462 122.74 143.462C123.681 143.462 124.443 144.224 124.443 145.165V161.885C124.443 162.825 123.681 163.588 122.74 163.588C121.8 163.588 121.037 162.825 121.037 161.885V145.165ZM74.5361 151.419C75.4778 151.414 76.244 152.175 76.244 153.117C76.244 154.055 75.4837 154.815 74.5459 154.815H60.0448C59.1301 154.815 58.3887 154.074 58.3887 153.159C58.3887 152.248 59.1243 151.508 60.0352 151.503L74.5361 151.419ZM113.756 151.419C114.698 151.414 115.464 152.175 115.464 153.117C115.464 154.055 114.704 154.815 113.766 154.815H99.2646C98.3499 154.815 97.6085 154.074 97.6085 153.159C97.6085 152.248 98.3441 151.508 99.255 151.503L113.756 151.419Z" fill="white"/>
<path fill-rule="evenodd" clip-rule="evenodd" d="M97.6074 154.041C97.6074 153.1 98.3699 152.338 99.3104 152.338C100.251 152.338 101.013 153.1 101.013 154.041V161.988C101.013 162.929 100.251 163.691 99.3104 163.691C98.3699 163.691 97.6074 162.929 97.6074 161.988V154.041Z" fill="white"/>
<path fill-rule="evenodd" clip-rule="evenodd" d="M97.6074 154.041C97.6074 153.1 98.3699 152.338 99.3104 152.338C100.251 152.338 101.013 153.1 101.013 154.041V161.988C101.013 162.929 100.251 163.691 99.3104 163.691C98.3699 163.691 97.6074 162.929 97.6074 161.988V154.041Z" fill="white"/>
<path fill-rule="evenodd" clip-rule="evenodd" d="M97.6085 154.041C97.6085 153.1 98.3709 152.338 99.3114 152.338C100.252 152.338 101.014 153.1 101.014 154.041V161.988C101.014 162.929 100.252 163.691 99.3114 163.691C98.3709 163.691 97.6085 162.929 97.6085 161.988V154.041ZM58.3887 153.989C58.3887 153.077 59.128 152.338 60.04 152.338C60.9521 152.338 61.6914 153.077 61.6914 153.989V162.04C61.6914 162.952 60.9521 163.691 60.04 163.691C59.128 163.691 58.3887 162.952 58.3887 162.04V153.989ZM87.1843 153.989C87.1843 153.077 87.9236 152.338 88.8356 152.338C89.7476 152.338 90.487 153.077 90.487 153.989V162.04C90.487 162.952 89.7476 163.691 88.8356 163.691C87.9236 163.691 87.1843 162.952 87.1843 162.04V153.989ZM72.8381 154.041C72.8381 153.1 73.6005 152.338 74.541 152.338C75.4815 152.338 76.244 153.1 76.244 154.041V161.988C76.244 162.929 75.4815 163.691 74.541 163.691C73.6005 163.691 72.8381 162.929 72.8381 161.988V154.041Z" fill="white"/>
<path fill-rule="evenodd" clip-rule="evenodd" d="M87.8553 160.182C88.7958 160.182 89.5583 160.945 89.5583 161.885C89.5583 162.826 88.7958 163.588 87.8553 163.588H75.9862C75.0456 163.588 74.2832 162.826 74.2832 161.885C74.2832 160.945 75.0456 160.182 75.9862 160.182H87.8553ZM88.939 151.513C89.851 151.513 90.5904 152.252 90.5904 153.164C90.5904 154.076 89.851 154.815 88.939 154.815H82.54C81.628 154.815 80.8886 154.076 80.8886 153.164C80.8886 152.252 81.628 151.513 82.54 151.513H88.939Z" fill="white"/>
<path fill-rule="evenodd" clip-rule="evenodd" d="M138.686 145.113C138.686 144.201 139.425 143.462 140.337 143.462H186.059C186.971 143.462 187.71 144.201 187.71 145.113C187.71 146.025 186.971 146.765 186.059 146.765H140.337C139.425 146.765 138.686 146.025 138.686 145.113ZM146.013 161.937C146.013 161.024 146.753 160.285 147.665 160.285H147.768C148.68 160.285 149.419 161.024 149.419 161.937C149.419 162.849 148.68 163.588 147.768 163.588H147.665C146.753 163.588 146.013 162.849 146.013 161.937ZM186.274 160.268C187.184 160.277 187.917 161.018 187.917 161.928C187.917 162.845 187.173 163.588 186.257 163.588H179.806C178.87 163.588 178.112 162.829 178.112 161.894C178.112 160.951 178.881 160.19 179.824 160.2L186.274 160.268ZM193.086 145.169C193.081 144.228 193.843 143.462 194.785 143.462C195.723 143.462 196.483 144.222 196.483 145.161V161.932C196.483 162.847 195.742 163.588 194.828 163.588C193.917 163.588 193.177 162.852 193.172 161.941L193.086 145.169Z" fill="white"/>
<path fill-rule="evenodd" clip-rule="evenodd" d="M210.984 160.182C211.924 160.182 212.687 160.944 212.687 161.885C212.687 162.825 211.924 163.588 210.984 163.588H195.812C194.871 163.588 194.109 162.825 194.109 161.885C194.109 160.944 194.871 160.182 195.812 160.182H210.984ZM178.111 153.989C178.111 153.077 178.851 152.338 179.763 152.338C180.675 152.338 181.414 153.077 181.414 153.989V162.04C181.414 162.952 180.675 163.691 179.763 163.691C178.851 163.691 178.111 162.952 178.111 162.04V153.989Z" fill="white"/>
<path fill-rule="evenodd" clip-rule="evenodd" d="M209.901 145.165C209.901 144.224 210.663 143.462 211.604 143.462C212.544 143.462 213.307 144.224 213.307 145.165V161.885C213.307 162.825 212.544 163.588 211.604 163.588C210.663 163.588 209.901 162.825 209.901 161.885V145.165ZM201.532 145.109C201.537 144.198 202.277 143.462 203.188 143.462C204.102 143.462 204.843 144.203 204.843 145.118V161.889C204.843 162.827 204.083 163.588 203.145 163.588C202.203 163.588 201.441 162.822 201.446 161.881L201.532 145.109ZM154.937 151.419C155.878 151.414 156.644 152.175 156.644 153.117C156.644 154.055 155.884 154.815 154.946 154.815H140.445C139.531 154.815 138.789 154.074 138.789 153.159C138.789 152.248 139.525 151.508 140.436 151.503L154.937 151.419ZM194.26 151.419C195.201 151.414 195.967 152.175 195.967 153.117C195.967 154.055 195.207 154.815 194.269 154.815H179.768C178.854 154.815 178.112 154.074 178.112 153.159C178.112 152.248 178.848 151.508 179.759 151.503L194.26 151.419Z" fill="white"/>
<path fill-rule="evenodd" clip-rule="evenodd" d="M178.111 153.989C178.111 153.077 178.851 152.338 179.763 152.338C180.675 152.338 181.414 153.077 181.414 153.989V162.04C181.414 162.952 180.675 163.691 179.763 163.691C178.851 163.691 178.111 162.952 178.111 162.04V153.989Z" fill="white"/>
<path fill-rule="evenodd" clip-rule="evenodd" d="M178.111 153.989C178.111 153.077 178.851 152.338 179.763 152.338C180.675 152.338 181.414 153.077 181.414 153.989V162.04C181.414 162.952 180.675 163.691 179.763 163.691C178.851 163.691 178.111 162.952 178.111 162.04V153.989Z" fill="white"/>
<path fill-rule="evenodd" clip-rule="evenodd" d="M178.112 153.989C178.112 153.077 178.851 152.338 179.763 152.338C180.675 152.338 181.415 153.077 181.415 153.989V162.04C181.415 162.952 180.675 163.691 179.763 163.691C178.851 163.691 178.112 162.952 178.112 162.04V153.989ZM138.789 154.041C138.789 153.1 139.552 152.338 140.492 152.338C141.433 152.338 142.195 153.1 142.195 154.041V161.988C142.195 162.929 141.433 163.691 140.492 163.691C139.552 163.691 138.789 162.929 138.789 161.988V154.041ZM167.585 154.041C167.585 153.1 168.347 152.338 169.288 152.338C170.228 152.338 170.991 153.1 170.991 154.041V161.988C170.991 162.929 170.228 163.691 169.288 163.691C168.347 163.691 167.585 162.929 167.585 161.988V154.041ZM153.342 154.041C153.342 153.1 154.104 152.338 155.045 152.338C155.985 152.338 156.748 153.1 156.748 154.041V161.988C156.748 162.929 155.985 163.691 155.045 163.691C154.104 163.691 153.342 162.929 153.342 161.988V154.041Z" fill="white"/>
<path fill-rule="evenodd" clip-rule="evenodd" d="M168.256 160.182C169.197 160.182 169.959 160.945 169.959 161.885C169.959 162.826 169.197 163.588 168.256 163.588H156.49C155.55 163.588 154.787 162.826 154.787 161.885C154.787 160.945 155.55 160.182 156.49 160.182H168.256ZM169.34 151.513C170.252 151.513 170.991 152.252 170.991 153.164C170.991 154.076 170.252 154.815 169.34 154.815H163.044C162.132 154.815 161.393 154.076 161.393 153.164C161.393 152.252 162.132 151.513 163.044 151.513H169.34Z" fill="white"/>
<path fill-rule="evenodd" clip-rule="evenodd" d="M219.395 145.113C219.395 144.201 220.134 143.462 221.046 143.462H266.871C267.783 143.462 268.523 144.201 268.523 145.113C268.523 146.025 267.783 146.765 266.871 146.765H221.046C220.134 146.765 219.395 146.025 219.395 145.113ZM226.722 161.937C226.722 161.024 227.462 160.285 228.374 160.285H228.477C229.389 160.285 230.128 161.024 230.128 161.937C230.128 162.849 229.389 163.588 228.477 163.588H228.374C227.462 163.588 226.722 162.849 226.722 161.937ZM266.983 160.268C267.893 160.277 268.626 161.018 268.626 161.928C268.626 162.845 267.882 163.588 266.966 163.588H260.515C259.579 163.588 258.821 162.829 258.821 161.894C258.821 160.951 259.59 160.19 260.533 160.2L266.983 160.268ZM273.889 145.165C273.889 144.224 274.652 143.462 275.592 143.462C276.533 143.462 277.295 144.224 277.295 145.165V161.885C277.295 162.825 276.533 163.588 275.592 163.588C274.652 163.588 273.889 162.825 273.889 161.885V145.165Z" fill="white"/>
<path fill-rule="evenodd" clip-rule="evenodd" d="M291.693 160.182C292.633 160.182 293.396 160.944 293.396 161.885C293.396 162.825 292.633 163.588 291.693 163.588H276.521C275.58 163.588 274.818 162.825 274.818 161.885C274.818 160.944 275.58 160.182 276.521 160.182H291.693ZM258.82 154.041C258.82 153.1 259.583 152.338 260.523 152.338C261.464 152.338 262.226 153.1 262.226 154.041V161.988C262.226 162.929 261.464 163.691 260.523 163.691C259.583 163.691 258.82 162.929 258.82 161.988V154.041Z" fill="white"/>
<path fill-rule="evenodd" clip-rule="evenodd" d="M290.61 145.165C290.61 144.224 291.372 143.462 292.313 143.462C293.253 143.462 294.016 144.224 294.016 145.165V161.885C294.016 162.825 293.253 163.588 292.313 163.588C291.372 163.588 290.61 162.825 290.61 161.885V145.165ZM282.25 145.113C282.25 144.201 282.989 143.462 283.901 143.462C284.813 143.462 285.552 144.201 285.552 145.113V161.936C285.552 162.849 284.813 163.588 283.901 163.588C282.989 163.588 282.25 162.849 282.25 161.936V145.113ZM235.749 151.419C236.69 151.413 237.457 152.175 237.457 153.117C237.457 154.055 236.696 154.815 235.759 154.815H221.154C220.24 154.815 219.498 154.074 219.498 153.159C219.498 152.248 220.234 151.508 221.145 151.503L235.749 151.419ZM274.969 151.419C275.91 151.414 276.676 152.175 276.676 153.117C276.676 154.055 275.916 154.815 274.978 154.815H260.477C259.563 154.815 258.821 154.074 258.821 153.159C258.821 152.248 259.557 151.508 260.468 151.503L274.969 151.419Z" fill="white"/>
<path fill-rule="evenodd" clip-rule="evenodd" d="M258.82 154.041C258.82 153.1 259.583 152.338 260.523 152.338C261.464 152.338 262.226 153.1 262.226 154.041V161.988C262.226 162.929 261.464 163.691 260.523 163.691C259.583 163.691 258.82 162.929 258.82 161.988V154.041Z" fill="white"/>
<path fill-rule="evenodd" clip-rule="evenodd" d="M258.82 154.041C258.82 153.1 259.583 152.338 260.523 152.338C261.464 152.338 262.226 153.1 262.226 154.041V161.988C262.226 162.929 261.464 163.691 260.523 163.691C259.583 163.691 258.82 162.929 258.82 161.988V154.041Z" fill="white"/>
<path fill-rule="evenodd" clip-rule="evenodd" d="M258.821 154.041C258.821 153.1 259.583 152.338 260.524 152.338C261.465 152.338 262.227 153.1 262.227 154.041V161.988C262.227 162.929 261.465 163.691 260.524 163.691C259.583 163.691 258.821 162.929 258.821 161.988V154.041ZM219.586 153.982C219.595 153.071 220.335 152.338 221.245 152.338C222.161 152.338 222.904 153.081 222.904 153.997V161.996C222.904 162.932 222.145 163.691 221.209 163.691C220.266 163.691 219.505 162.923 219.514 161.98L219.586 153.982ZM248.294 154.041C248.294 153.1 249.056 152.338 249.997 152.338C250.937 152.338 251.7 153.1 251.7 154.041V161.988C251.7 162.929 250.937 163.691 249.997 163.691C249.056 163.691 248.294 162.929 248.294 161.988V154.041ZM234.051 154.041C234.051 153.1 234.813 152.338 235.754 152.338C236.694 152.338 237.457 153.1 237.457 154.041V161.988C237.457 162.929 236.694 163.691 235.754 163.691C234.813 163.691 234.051 162.929 234.051 161.988V154.041Z" fill="white"/>
<path fill-rule="evenodd" clip-rule="evenodd" d="M249.067 160.182C250.007 160.182 250.77 160.945 250.77 161.885C250.77 162.826 250.007 163.588 249.067 163.588H237.301C236.36 163.588 235.598 162.826 235.598 161.885C235.598 160.945 236.36 160.182 237.301 160.182H249.067ZM250.047 151.513C250.959 151.513 251.698 152.252 251.698 153.164C251.698 154.076 250.959 154.815 250.047 154.815H243.751C242.839 154.815 242.1 154.076 242.1 153.164C242.1 152.252 242.839 151.513 243.751 151.513H250.047Z" fill="white"/>
<path fill-rule="evenodd" clip-rule="evenodd" d="M300.621 145.113C300.621 144.201 301.36 143.462 302.272 143.462H347.994C348.907 143.462 349.646 144.201 349.646 145.113C349.646 146.025 348.907 146.765 347.994 146.765H302.272C301.36 146.765 300.621 146.025 300.621 145.113ZM307.949 161.937C307.949 161.024 308.688 160.285 309.6 160.285H309.704C310.616 160.285 311.355 161.024 311.355 161.937C311.355 162.849 310.616 163.588 309.704 163.588H309.6C308.688 163.588 307.949 162.849 307.949 161.937ZM348.21 160.268C349.12 160.277 349.852 161.018 349.852 161.928C349.852 162.845 349.109 163.588 348.192 163.588H341.741C340.806 163.588 340.047 162.829 340.047 161.894C340.047 160.951 340.817 160.19 341.759 160.2L348.21 160.268ZM355.013 145.216C355.013 144.247 355.798 143.462 356.767 143.462C357.736 143.462 358.522 144.247 358.522 145.216V161.833C358.522 162.802 357.736 163.588 356.767 163.588C355.798 163.588 355.013 162.802 355.013 161.833V145.216Z" fill="white"/>
<path fill-rule="evenodd" clip-rule="evenodd" d="M372.919 160.182C373.86 160.182 374.622 160.944 374.622 161.885C374.622 162.825 373.86 163.588 372.919 163.588H357.747C356.807 163.588 356.044 162.825 356.044 161.885C356.044 160.944 356.807 160.182 357.747 160.182H372.919ZM340.047 153.989C340.047 153.077 340.786 152.338 341.698 152.338C342.61 152.338 343.35 153.077 343.35 153.989V162.04C343.35 162.952 342.61 163.691 341.698 163.691C340.786 163.691 340.047 162.952 340.047 162.04V153.989Z" fill="white"/>
<path fill-rule="evenodd" clip-rule="evenodd" d="M371.836 145.165C371.836 144.224 372.599 143.462 373.539 143.462C374.48 143.462 375.242 144.224 375.242 145.165V161.885C375.242 162.825 374.48 163.588 373.539 163.588C372.599 163.588 371.836 162.825 371.836 161.885V145.165ZM363.476 145.113C363.476 144.201 364.216 143.462 365.128 143.462C366.04 143.462 366.779 144.201 366.779 145.113V161.936C366.779 162.849 366.04 163.588 365.128 163.588C364.216 163.588 363.476 162.849 363.476 161.936V145.113ZM316.975 151.419C317.917 151.413 318.683 152.175 318.683 153.117C318.683 154.055 317.923 154.815 316.985 154.815H302.381C301.466 154.815 300.725 154.074 300.725 153.159C300.725 152.248 301.46 151.508 302.371 151.503L316.975 151.419ZM356.195 151.419C357.137 151.414 357.903 152.175 357.903 153.117C357.903 154.055 357.143 154.815 356.205 154.815H341.704C340.789 154.815 340.048 154.074 340.048 153.159C340.048 152.248 340.783 151.508 341.694 151.503L356.195 151.419Z" fill="white"/>
<path fill-rule="evenodd" clip-rule="evenodd" d="M340.047 153.989C340.047 153.077 340.786 152.338 341.698 152.338C342.61 152.338 343.35 153.077 343.35 153.989V162.04C343.35 162.952 342.61 163.691 341.698 163.691C340.786 163.691 340.047 162.952 340.047 162.04V153.989Z" fill="white"/>
<path fill-rule="evenodd" clip-rule="evenodd" d="M340.047 153.989C340.047 153.077 340.786 152.338 341.698 152.338C342.61 152.338 343.35 153.077 343.35 153.989V162.04C343.35 162.952 342.61 163.691 341.698 163.691C340.786 163.691 340.047 162.952 340.047 162.04V153.989Z" fill="white"/>
<path fill-rule="evenodd" clip-rule="evenodd" d="M340.048 153.989C340.048 153.077 340.787 152.338 341.699 152.338C342.611 152.338 343.35 153.077 343.35 153.989V162.04C343.35 162.952 342.611 163.691 341.699 163.691C340.787 163.691 340.048 162.952 340.048 162.04V153.989ZM300.725 154.041C300.725 153.1 301.487 152.338 302.428 152.338C303.368 152.338 304.131 153.1 304.131 154.041V161.988C304.131 162.929 303.368 163.691 302.428 163.691C301.487 163.691 300.725 162.929 300.725 161.988V154.041ZM329.52 154.041C329.52 153.1 330.283 152.338 331.223 152.338C332.164 152.338 332.926 153.1 332.926 154.041V161.988C332.926 162.929 332.164 163.691 331.223 163.691C330.283 163.691 329.52 162.929 329.52 161.988V154.041ZM315.277 154.041C315.277 153.1 316.04 152.338 316.98 152.338C317.921 152.338 318.683 153.1 318.683 154.041V161.988C318.683 162.929 317.921 163.691 316.98 163.691C316.04 163.691 315.277 162.929 315.277 161.988V154.041Z" fill="white"/>
<path fill-rule="evenodd" clip-rule="evenodd" d="M330.192 160.182C331.132 160.182 331.895 160.945 331.895 161.885C331.895 162.826 331.132 163.588 330.192 163.588H318.426C317.485 163.588 316.723 162.826 316.723 161.885C316.723 160.945 317.485 160.182 318.426 160.182H330.192ZM331.275 151.513C332.187 151.513 332.927 152.252 332.927 153.164C332.927 154.076 332.187 154.815 331.275 154.815H324.979C324.067 154.815 323.328 154.076 323.328 153.164C323.328 152.252 324.067 151.513 324.979 151.513H331.275Z" fill="white"/>
<path fill-rule="evenodd" clip-rule="evenodd" d="M381.332 145.113C381.332 144.201 382.071 143.462 382.983 143.462H428.809C429.721 143.462 430.46 144.201 430.46 145.113C430.46 146.025 429.721 146.765 428.809 146.765H382.983C382.071 146.765 381.332 146.025 381.332 145.113ZM388.66 161.937C388.66 161.024 389.399 160.285 390.311 160.285H390.415C391.327 160.285 392.066 161.024 392.066 161.937C392.066 162.849 391.327 163.588 390.415 163.588H390.311C389.399 163.588 388.66 162.849 388.66 161.937ZM428.921 160.268C429.831 160.277 430.563 161.018 430.563 161.928C430.563 162.845 429.82 163.588 428.903 163.588H422.452C421.517 163.588 420.758 162.829 420.758 161.894C420.758 160.951 421.528 160.19 422.47 160.2L428.921 160.268ZM435.827 145.165C435.827 144.224 436.589 143.462 437.53 143.462C438.47 143.462 439.233 144.224 439.233 145.165V161.885C439.233 162.825 438.47 163.588 437.53 163.588C436.589 163.588 435.827 162.825 435.827 161.885V145.165Z" fill="white"/>
<path fill-rule="evenodd" clip-rule="evenodd" d="M453.63 160.182C454.571 160.182 455.333 160.944 455.333 161.885C455.333 162.825 454.571 163.588 453.63 163.588H438.458C437.518 163.588 436.755 162.825 436.755 161.885C436.755 160.944 437.518 160.182 438.458 160.182H453.63ZM420.758 154.041C420.758 153.1 421.52 152.338 422.461 152.338C423.401 152.338 424.164 153.1 424.164 154.041V161.988C424.164 162.929 423.401 163.691 422.461 163.691C421.52 163.691 420.758 162.929 420.758 161.988V154.041Z" fill="white"/>
<path fill-rule="evenodd" clip-rule="evenodd" d="M452.65 145.113C452.65 144.201 453.39 143.462 454.302 143.462C455.214 143.462 455.953 144.201 455.953 145.113V161.936C455.953 162.849 455.214 163.588 454.302 163.588C453.39 163.588 452.65 162.849 452.65 161.936V145.113ZM444.187 145.165C444.187 144.224 444.95 143.462 445.89 143.462C446.831 143.462 447.593 144.224 447.593 145.165V161.885C447.593 162.825 446.831 163.588 445.89 163.588C444.95 163.588 444.187 162.825 444.187 161.885V145.165ZM397.686 151.419C398.628 151.413 399.394 152.175 399.394 153.117C399.394 154.055 398.634 154.815 397.696 154.815H383.092C382.177 154.815 381.436 154.074 381.436 153.159C381.436 152.248 382.171 151.508 383.082 151.503L397.686 151.419ZM436.906 151.419C437.848 151.414 438.614 152.175 438.614 153.117C438.614 154.055 437.854 154.815 436.916 154.815H422.415C421.5 154.815 420.759 154.074 420.759 153.159C420.759 152.248 421.494 151.508 422.405 151.503L436.906 151.419Z" fill="white"/>
<path fill-rule="evenodd" clip-rule="evenodd" d="M420.758 154.041C420.758 153.1 421.52 152.338 422.461 152.338C423.401 152.338 424.164 153.1 424.164 154.041V161.988C424.164 162.929 423.401 163.691 422.461 163.691C421.52 163.691 420.758 162.929 420.758 161.988V154.041Z" fill="white"/>
<path fill-rule="evenodd" clip-rule="evenodd" d="M420.758 154.041C420.758 153.1 421.52 152.338 422.461 152.338C423.401 152.338 424.164 153.1 424.164 154.041V161.988C424.164 162.929 423.401 163.691 422.461 163.691C421.52 163.691 420.758 162.929 420.758 161.988V154.041Z" fill="white"/>
<path fill-rule="evenodd" clip-rule="evenodd" d="M420.759 154.041C420.759 153.1 421.521 152.338 422.462 152.338C423.402 152.338 424.165 153.1 424.165 154.041V161.988C424.165 162.929 423.402 163.691 422.462 163.691C421.521 163.691 420.759 162.929 420.759 161.988V154.041ZM381.524 153.982C381.532 153.071 382.272 152.338 383.183 152.338C384.099 152.338 384.842 153.081 384.842 153.997V161.996C384.842 162.932 384.083 163.691 383.146 163.691C382.204 163.691 381.443 162.923 381.451 161.98L381.524 153.982ZM410.231 154.041C410.231 153.1 410.994 152.338 411.934 152.338C412.875 152.338 413.637 153.1 413.637 154.041V161.988C413.637 162.929 412.875 163.691 411.934 163.691C410.994 163.691 410.231 162.929 410.231 161.988V154.041ZM395.988 154.041C395.988 153.1 396.751 152.338 397.691 152.338C398.632 152.338 399.394 153.1 399.394 154.041V161.988C399.394 162.929 398.632 163.691 397.691 163.691C396.751 163.691 395.988 162.929 395.988 161.988V154.041Z" fill="white"/>
<path fill-rule="evenodd" clip-rule="evenodd" d="M410.901 160.182C411.841 160.182 412.604 160.945 412.604 161.885C412.604 162.826 411.841 163.588 410.901 163.588H399.238C398.298 163.588 397.535 162.826 397.535 161.885C397.535 160.945 398.298 160.182 399.238 160.182H410.901ZM411.985 151.513C412.897 151.513 413.636 152.252 413.636 153.164C413.636 154.076 412.897 154.815 411.985 154.815H405.689C404.777 154.815 404.037 154.076 404.037 153.164C404.037 152.252 404.777 151.513 405.689 151.513H411.985Z" fill="white"/>
<path fill-rule="evenodd" clip-rule="evenodd" d="M462.145 145.113C462.145 144.201 462.884 143.462 463.796 143.462H509.518C510.43 143.462 511.169 144.201 511.169 145.113C511.169 146.025 510.43 146.765 509.518 146.765H463.796C462.884 146.765 462.145 146.025 462.145 145.113ZM469.369 161.937C469.369 161.024 470.109 160.285 471.021 160.285H471.124C472.036 160.285 472.775 161.024 472.775 161.937C472.775 162.849 472.036 163.588 471.124 163.588H471.021C470.109 163.588 469.369 162.849 469.369 161.937ZM509.63 160.268C510.54 160.277 511.273 161.018 511.273 161.928C511.273 162.845 510.529 163.588 509.612 163.588H503.265C502.329 163.588 501.571 162.829 501.571 161.894C501.571 160.951 502.34 160.19 503.283 160.2L509.63 160.268ZM516.536 145.165C516.536 144.224 517.299 143.462 518.239 143.462C519.18 143.462 519.942 144.224 519.942 145.165V161.885C519.942 162.825 519.18 163.588 518.239 163.588C517.299 163.588 516.536 162.825 516.536 161.885V145.165Z" fill="white"/>
<path fill-rule="evenodd" clip-rule="evenodd" d="M534.442 160.182C535.383 160.182 536.145 160.944 536.145 161.885C536.145 162.825 535.383 163.588 534.442 163.588H519.27C518.33 163.588 517.568 162.825 517.568 161.885C517.568 160.944 518.33 160.182 519.27 160.182H534.442ZM501.467 154.041C501.467 153.1 502.229 152.338 503.17 152.338C504.11 152.338 504.873 153.1 504.873 154.041V161.988C504.873 162.929 504.11 163.691 503.17 163.691C502.229 163.691 501.467 162.929 501.467 161.988V154.041Z" fill="white"/>
<path fill-rule="evenodd" clip-rule="evenodd" d="M533.359 145.165C533.359 144.224 534.122 143.462 535.062 143.462C536.003 143.462 536.765 144.224 536.765 145.165V161.885C536.765 162.825 536.003 163.588 535.062 163.588C534.122 163.588 533.359 162.825 533.359 161.885V145.165ZM524.896 145.165C524.896 144.224 525.659 143.462 526.599 143.462C527.54 143.462 528.302 144.224 528.302 145.165V161.885C528.302 162.825 527.54 163.588 526.599 163.588C525.659 163.588 524.896 162.825 524.896 161.885V145.165ZM478.395 151.419C479.337 151.413 480.103 152.175 480.103 153.117C480.103 154.055 479.343 154.815 478.405 154.815H463.801C462.886 154.815 462.145 154.074 462.145 153.159C462.145 152.248 462.88 151.508 463.791 151.503L478.395 151.419ZM517.615 151.419C518.557 151.414 519.323 152.175 519.323 153.117C519.323 154.055 518.563 154.815 517.625 154.815H503.227C502.312 154.815 501.571 154.074 501.571 153.159C501.571 152.248 502.306 151.508 503.217 151.503L517.615 151.419Z" fill="white"/>
<path fill-rule="evenodd" clip-rule="evenodd" d="M501.555 153.982C501.563 153.071 502.304 152.338 503.214 152.338C504.13 152.338 504.873 153.081 504.873 153.997V161.996C504.873 162.932 504.114 163.691 503.177 163.691C502.235 163.691 501.474 162.923 501.482 161.98L501.555 153.982Z" fill="white"/>
<path fill-rule="evenodd" clip-rule="evenodd" d="M501.555 153.982C501.563 153.071 502.304 152.338 503.214 152.338C504.13 152.338 504.873 153.081 504.873 153.997V161.996C504.873 162.932 504.114 163.691 503.177 163.691C502.235 163.691 501.474 162.923 501.482 161.98L501.555 153.982Z" fill="white"/>
<path fill-rule="evenodd" clip-rule="evenodd" d="M501.556 153.982C501.564 153.071 502.304 152.338 503.215 152.338C504.131 152.338 504.873 153.081 504.873 153.997V161.996C504.873 162.932 504.115 163.691 503.178 163.691C502.236 163.691 501.475 162.923 501.483 161.98L501.556 153.982ZM462.145 154.041C462.145 153.1 462.907 152.338 463.847 152.338C464.788 152.338 465.55 153.1 465.55 154.041V161.988C465.55 162.929 464.788 163.691 463.847 163.691C462.907 163.691 462.145 162.929 462.145 161.988V154.041ZM491.028 153.982C491.037 153.071 491.777 152.338 492.687 152.338C493.603 152.338 494.346 153.081 494.346 153.997V161.996C494.346 162.932 493.587 163.691 492.651 163.691C491.709 163.691 490.947 162.923 490.956 161.98L491.028 153.982ZM476.697 154.041C476.697 153.1 477.46 152.338 478.4 152.338C479.341 152.338 480.103 153.1 480.103 154.041V161.988C480.103 162.929 479.341 163.691 478.4 163.691C477.46 163.691 476.697 162.929 476.697 161.988V154.041Z" fill="white"/>
<path fill-rule="evenodd" clip-rule="evenodd" d="M491.612 160.182C492.552 160.182 493.315 160.945 493.315 161.885C493.315 162.826 492.552 163.588 491.612 163.588H479.949C479.009 163.588 478.246 162.826 478.246 161.885C478.246 160.945 479.009 160.182 479.949 160.182H491.612ZM492.695 151.513C493.607 151.513 494.347 152.252 494.347 153.164C494.347 154.076 493.607 154.815 492.695 154.815H486.4C485.488 154.815 484.748 154.076 484.748 153.164C484.748 152.252 485.488 151.513 486.4 151.513H492.695Z" fill="white"/>
<path fill-rule="evenodd" clip-rule="evenodd" d="M-68.8705 342.605C-68.8705 340.924 -67.5073 339.561 -65.8258 339.561C-64.1442 339.561 -62.7811 340.924 -62.7811 342.605V346.837C-62.7811 348.518 -64.1442 349.882 -65.8258 349.882C-67.5073 349.882 -68.8705 348.518 -68.8705 346.837V342.605ZM91.6211 342.605C91.6211 340.924 92.9842 339.561 94.6658 339.561C96.3473 339.561 97.7105 340.924 97.7105 342.605V346.837C97.7105 348.518 96.3473 349.882 94.6658 349.882C92.9842 349.882 91.6211 348.518 91.6211 346.837V342.605ZM-192 342.554C-192 340.901 -190.66 339.561 -189.007 339.561C-187.354 339.561 -186.014 340.901 -186.014 342.554V346.888C-186.014 348.541 -187.354 349.882 -189.007 349.882C-190.66 349.882 -192 348.541 -192 346.888V342.554ZM-110.567 342.605C-110.567 340.924 -109.204 339.561 -107.523 339.561C-105.841 339.561 -104.478 340.924 -104.478 342.605V346.837C-104.478 348.518 -105.841 349.882 -107.523 349.882C-109.204 349.882 -110.567 348.518 -110.567 346.837V342.605ZM-29.6507 342.554C-29.6507 340.901 -28.3106 339.561 -26.6576 339.561C-25.0045 339.561 -23.6645 340.901 -23.6645 342.554V346.888C-23.6645 348.541 -25.0045 349.882 -26.6576 349.882C-28.3106 349.882 -29.6507 348.541 -29.6507 346.888V342.554ZM10.3948 342.554C10.3948 340.901 11.7349 339.561 13.3879 339.561C15.0409 339.561 16.381 340.901 16.381 342.554V346.888C16.381 348.542 15.0409 349.882 13.3879 349.882C11.7349 349.882 10.3948 348.541 10.3948 346.888V342.554ZM51.1628 342.657C51.1628 340.947 52.549 339.561 54.2591 339.561C55.9691 339.561 57.3554 340.947 57.3554 342.657V346.785C57.3554 348.495 55.9691 349.882 54.2591 349.882C52.549 349.882 51.1628 348.495 51.1628 346.785V342.657ZM131.667 342.605C131.667 340.924 133.03 339.561 134.711 339.561C136.393 339.561 137.756 340.924 137.756 342.605V346.837C137.756 348.518 136.393 349.882 134.711 349.882C133.03 349.882 131.667 348.518 131.667 346.837V342.605ZM334.784 342.554C334.784 340.901 336.124 339.561 337.777 339.561C339.43 339.561 340.77 340.901 340.77 342.554V346.888C340.77 348.541 339.43 349.882 337.777 349.882C336.124 349.882 334.784 348.541 334.784 346.888V342.554ZM172.538 342.605C172.538 340.924 173.901 339.561 175.582 339.561C177.264 339.561 178.627 340.924 178.627 342.605V346.837C178.627 348.518 177.264 349.882 175.582 349.882C173.901 349.882 172.538 348.518 172.538 346.837V342.605ZM212.583 342.605C212.583 340.924 213.946 339.561 215.628 339.561C217.309 339.561 218.673 340.924 218.673 342.605V346.837C218.673 348.518 217.309 349.882 215.628 349.882C213.946 349.882 212.583 348.518 212.583 346.837V342.605ZM253.042 342.554C253.042 340.901 254.382 339.561 256.035 339.561C257.688 339.561 259.028 340.901 259.028 342.554V346.888C259.028 348.542 257.688 349.882 256.035 349.882C254.382 349.882 253.042 348.541 253.042 346.888V342.554ZM293.5 342.554C293.5 340.901 294.84 339.561 296.493 339.561C298.146 339.561 299.486 340.901 299.486 342.554V346.888C299.486 348.541 298.146 349.882 296.493 349.882C294.84 349.882 293.5 348.541 293.5 346.888V342.554ZM616.547 342.657C616.547 340.947 617.933 339.561 619.643 339.561C621.353 339.561 622.74 340.947 622.74 342.657V346.785C622.74 348.495 621.353 349.882 619.643 349.882C617.933 349.882 616.547 348.495 616.547 346.785V342.657ZM373.974 342.539C373.99 340.889 375.332 339.561 376.982 339.561C378.643 339.561 379.99 340.907 379.99 342.569V346.852C379.99 348.525 378.633 349.882 376.96 349.882C375.275 349.882 373.914 348.507 373.931 346.822L373.974 342.539ZM414.772 342.605C414.772 340.924 416.135 339.561 417.816 339.561C419.498 339.561 420.861 340.924 420.861 342.605V346.837C420.861 348.518 419.498 349.882 417.816 349.882C416.135 349.882 414.772 348.518 414.772 346.837V342.605ZM456.056 342.605C456.056 340.924 457.419 339.561 459.1 339.561C460.782 339.561 462.145 340.924 462.145 342.605V346.837C462.145 348.518 460.782 349.882 459.1 349.882C457.419 349.882 456.056 348.518 456.056 346.837V342.605ZM494.863 342.605C494.863 340.924 496.226 339.561 497.907 339.561C499.589 339.561 500.952 340.924 500.952 342.605V346.837C500.952 348.518 499.589 349.882 497.907 349.882C496.226 349.882 494.863 348.518 494.863 346.837V342.605ZM536.116 342.59C536.133 340.912 537.498 339.561 539.176 339.561C540.866 339.561 542.236 340.931 542.236 342.62V346.801C542.236 348.502 540.857 349.882 539.155 349.882C537.442 349.882 536.057 348.483 536.074 346.77L536.116 342.59ZM576.605 342.554C576.605 340.901 577.945 339.561 579.598 339.561C581.251 339.561 582.591 340.901 582.591 342.554V346.888C582.591 348.542 581.251 349.882 579.598 349.882C577.945 349.882 576.605 348.541 576.605 346.888V342.554ZM696.299 342.539C696.315 340.889 697.657 339.561 699.307 339.561C700.968 339.561 702.315 340.907 702.315 342.569V346.852C702.315 348.525 700.958 349.882 699.285 349.882C697.6 349.882 696.239 348.507 696.256 346.822L696.299 342.539ZM657.521 342.554C657.521 340.901 658.862 339.561 660.515 339.561C662.168 339.561 663.508 340.901 663.508 342.554V346.888C663.508 348.541 662.168 349.882 660.515 349.882C658.862 349.882 657.521 348.541 657.521 346.888V342.554ZM-151.438 342.605C-151.438 340.924 -150.075 339.561 -148.394 339.561C-146.712 339.561 -145.349 340.924 -145.349 342.605V346.837C-145.349 348.518 -146.712 349.882 -148.394 349.882C-150.075 349.882 -151.438 348.518 -151.438 346.837V342.605Z" fill="#D90000"/>
<path fill-rule="evenodd" clip-rule="evenodd" d="M-68.8705 165.704C-68.8705 164.022 -67.5073 162.659 -65.8258 162.659C-64.1442 162.659 -62.7811 164.022 -62.7811 165.704V170.039C-62.7811 171.72 -64.1442 173.083 -65.8258 173.083C-67.5073 173.083 -68.8705 171.72 -68.8705 170.039V165.704ZM91.6211 165.704C91.6211 164.022 92.9842 162.659 94.6658 162.659C96.3473 162.659 97.7105 164.022 97.7105 165.704V170.039C97.7105 171.72 96.3473 173.083 94.6658 173.083C92.9842 173.083 91.6211 171.72 91.6211 170.039V165.704ZM-192 165.652C-192 163.999 -190.66 162.659 -189.007 162.659C-187.354 162.659 -186.014 163.999 -186.014 165.652V170.09C-186.014 171.743 -187.354 173.083 -189.007 173.083C-190.66 173.083 -192 171.743 -192 170.09V165.652ZM-110.567 165.704C-110.567 164.022 -109.204 162.659 -107.523 162.659C-105.841 162.659 -104.478 164.022 -104.478 165.704V170.039C-104.478 171.72 -105.841 173.083 -107.523 173.083C-109.204 173.083 -110.567 171.72 -110.567 170.039V165.704ZM-29.6507 165.652C-29.6507 163.999 -28.3106 162.659 -26.6576 162.659C-25.0045 162.659 -23.6645 163.999 -23.6645 165.652V170.09C-23.6645 171.743 -25.0045 173.083 -26.6576 173.083C-28.3106 173.083 -29.6507 171.743 -29.6507 170.09V165.652ZM10.3948 165.652C10.3948 163.999 11.7349 162.659 13.3879 162.659C15.0409 162.659 16.381 163.999 16.381 165.652V170.09C16.381 171.743 15.0409 173.083 13.3879 173.083C11.7349 173.083 10.3948 171.743 10.3948 170.09V165.652ZM51.1628 165.755C51.1628 164.045 52.549 162.659 54.2591 162.659C55.9691 162.659 57.3554 164.045 57.3554 165.755V169.987C57.3554 171.697 55.9691 173.083 54.2591 173.083C52.549 173.083 51.1628 171.697 51.1628 169.987V165.755ZM131.667 165.704C131.667 164.022 133.03 162.659 134.711 162.659C136.393 162.659 137.756 164.022 137.756 165.704V170.039C137.756 171.72 136.393 173.083 134.711 173.083C133.03 173.083 131.667 171.72 131.667 170.039V165.704ZM334.784 165.652C334.784 163.999 336.124 162.659 337.777 162.659C339.43 162.659 340.77 163.999 340.77 165.652V170.09C340.77 171.743 339.43 173.083 337.777 173.083C336.124 173.083 334.784 171.743 334.784 170.09V165.652ZM172.538 165.704C172.538 164.022 173.901 162.659 175.582 162.659C177.264 162.659 178.627 164.022 178.627 165.704V170.039C178.627 171.72 177.264 173.083 175.582 173.083C173.901 173.083 172.538 171.72 172.538 170.039V165.704ZM212.583 165.704C212.583 164.022 213.946 162.659 215.628 162.659C217.309 162.659 218.673 164.022 218.673 165.704V170.039C218.673 171.72 217.309 173.083 215.628 173.083C213.946 173.083 212.583 171.72 212.583 170.039V165.704ZM253.042 165.652C253.042 163.999 254.382 162.659 256.035 162.659C257.688 162.659 259.028 163.999 259.028 165.652V170.09C259.028 171.743 257.688 173.083 256.035 173.083C254.382 173.083 253.042 171.743 253.042 170.09V165.652ZM293.5 165.652C293.5 163.999 294.84 162.659 296.493 162.659C298.146 162.659 299.486 163.999 299.486 165.652V170.09C299.486 171.743 298.146 173.083 296.493 173.083C294.84 173.083 293.5 171.743 293.5 170.09V165.652ZM616.547 165.755C616.547 164.045 617.933 162.659 619.643 162.659C621.353 162.659 622.74 164.045 622.74 165.755V169.987C622.74 171.697 621.353 173.083 619.643 173.083C617.933 173.083 616.547 171.697 616.547 169.987V165.755ZM373.974 165.637C373.99 163.988 375.332 162.659 376.982 162.659C378.643 162.659 379.99 164.006 379.99 165.667V170.054C379.99 171.727 378.633 173.083 376.96 173.083C375.275 173.083 373.914 171.709 373.931 170.024L373.974 165.637ZM414.772 165.704C414.772 164.022 416.135 162.659 417.816 162.659C419.498 162.659 420.861 164.022 420.861 165.704V170.039C420.861 171.72 419.498 173.083 417.816 173.083C416.135 173.083 414.772 171.72 414.772 170.039V165.704ZM456.056 165.704C456.056 164.022 457.419 162.659 459.1 162.659C460.782 162.659 462.145 164.022 462.145 165.704V170.039C462.145 171.72 460.782 173.083 459.1 173.083C457.419 173.083 456.056 171.72 456.056 170.039V165.704ZM494.863 165.704C494.863 164.022 496.226 162.659 497.907 162.659C499.589 162.659 500.952 164.022 500.952 165.704V170.039C500.952 171.72 499.589 173.083 497.907 173.083C496.226 173.083 494.863 171.72 494.863 170.039V165.704ZM536.117 165.689C536.133 164.011 537.498 162.659 539.176 162.659C540.866 162.659 542.236 164.029 542.236 165.719V170.002C542.236 171.704 540.857 173.083 539.155 173.083C537.441 173.083 536.057 171.685 536.074 169.972L536.117 165.689ZM576.605 165.652C576.605 163.999 577.945 162.659 579.598 162.659C581.251 162.659 582.591 163.999 582.591 165.652V170.09C582.591 171.743 581.251 173.083 579.598 173.083C577.945 173.083 576.605 171.743 576.605 170.09V165.652ZM696.299 165.637C696.315 163.988 697.657 162.659 699.307 162.659C700.968 162.659 702.315 164.006 702.315 165.667V170.054C702.315 171.727 700.958 173.083 699.285 173.083C697.6 173.083 696.239 171.709 696.256 170.024L696.299 165.637ZM657.521 165.652C657.521 163.999 658.862 162.659 660.515 162.659C662.168 162.659 663.508 163.999 663.508 165.652V170.09C663.508 171.743 662.168 173.083 660.515 173.083C658.862 173.083 657.521 171.743 657.521 170.09V165.652ZM-151.438 165.704C-151.438 164.022 -150.075 162.659 -148.394 162.659C-146.712 162.659 -145.349 164.022 -145.349 165.704V170.039C-145.349 171.72 -146.712 173.083 -148.394 173.083C-150.075 173.083 -151.438 171.72 -151.438 170.039V165.704Z" fill="#239E3F"/>
<path fill-rule="evenodd" clip-rule="evenodd" d="M279.76 197.544C279.724 197.544 279.699 197.579 279.722 197.607C288.341 208.096 314.144 265.222 263.982 302.715C252.134 311.614 268.838 317.712 279.872 307.822C299.167 290.527 306.013 270.69 305.782 252.348C305.472 227.894 292.578 206.329 279.784 197.551C279.777 197.546 279.769 197.544 279.76 197.544Z" fill="#DA0000"/>
<path fill-rule="evenodd" clip-rule="evenodd" d="M284.822 194.86C284.828 194.86 284.834 194.862 284.839 194.865C294.083 200.528 301.955 208.172 307.888 217.245C313.823 226.32 317.669 236.6 319.15 247.342C320.631 258.084 319.71 269.021 316.452 279.364C313.465 288.848 318.59 294.349 323.355 285.622C338.233 258.378 339.263 213.205 284.818 194.925C284.783 194.914 284.785 194.86 284.822 194.86ZM198.845 210.258C202.167 207.381 206.485 213.567 204.079 217.245C198.145 226.32 194.298 236.6 192.817 247.342C191.336 258.084 192.258 269.021 195.515 279.364C198.505 288.857 193.355 294.394 188.567 285.669C176.881 264.367 173.67 232.072 198.845 210.258Z" fill="#DA0000"/>
<path fill-rule="evenodd" clip-rule="evenodd" d="M206.082 252.348C206.213 242.001 217.138 247.207 218.875 257.408C221.527 272.987 229.717 289.138 247.882 302.715C259.725 311.61 243.03 317.691 232.008 307.797C212.748 290.508 205.851 270.681 206.082 252.348Z" fill="#DA0000"/>
<path fill-rule="evenodd" clip-rule="evenodd" d="M267.836 321.995C276.904 322.722 276.515 316.938 267.854 314.155C264.051 312.933 260.311 311.492 256.654 309.836C258.157 312.773 259.479 314.987 260.889 317.465C262.343 320.019 264.906 321.76 267.836 321.995ZM245.234 322.014C235.839 322.762 236.296 317.203 245.303 314.423C249.309 313.187 253.142 311.672 256.654 309.836C255.193 312.693 253.902 314.866 252.535 317.263C251.007 319.941 248.308 321.769 245.234 322.014ZM245.207 195.506C239.527 194.654 247.498 188.429 252.83 186.293C252.951 186.244 253.072 186.194 253.194 186.143C254.867 185.44 256.747 185.466 258.437 186.128C263.279 188.026 271.224 194.619 266.071 195.321C265.602 195.385 265.131 195.424 264.662 195.44C260.354 195.589 250.941 195.754 246.632 195.632C246.153 195.619 245.677 195.577 245.207 195.506Z" fill="#DA0000"/>
<path fill-rule="evenodd" clip-rule="evenodd" d="M250.489 325.22C253.612 328.63 259.006 328.567 262.048 325.084L262.236 324.869C263.496 323.427 264.197 321.582 264.214 319.668L265.184 206.772C265.207 204.056 264.056 201.463 262.025 199.658L261.806 199.463C258.434 196.466 253.373 196.402 249.926 199.312C247.848 201.067 246.667 203.663 246.709 206.383L248.455 320.102C248.484 321.999 249.208 323.82 250.489 325.22Z" fill="#DA0000"/>
</g>
</g>
<defs>
<clipPath id="clip0_2163_16865">
<rect width="512" height="512" rx="256" fill="white"/>
</clipPath>
</defs>
</svg>
