<svg width="32" height="32" viewBox="0 0 32 32" fill="none" xmlns="http://www.w3.org/2000/svg">
<path opacity="0.4" d="M16.0007 29.3337C8.63692 29.3337 2.66732 23.3641 2.66732 16.0003C2.66732 8.63653 8.63692 2.66699 16.0007 2.66699C23.3645 2.66699 29.334 8.63653 29.334 16.0003C29.334 23.3641 23.3645 29.3337 16.0007 29.3337Z" fill="#695AA6"/>
<path fill-rule="evenodd" clip-rule="evenodd" d="M15.2929 22.0407C15.6835 22.4313 16.3165 22.4313 16.7071 22.0407L20.7071 18.0407C21.0976 17.6502 21.0976 17.0171 20.7071 16.6266C20.3166 16.2361 19.6834 16.2361 19.2929 16.6266L17 18.9194V10.667C17 10.1147 16.5523 9.66699 16 9.66699C15.4477 9.66699 15 10.1147 15 10.667V18.9194L12.7071 16.6266C12.3165 16.2361 11.6835 16.2361 11.2929 16.6266C10.9024 17.0171 10.9024 17.6502 11.2929 18.0407L15.2929 22.0407Z" fill="#695AA6"/>
</svg>
