<svg width="32" height="32" viewBox="0 0 32 32" fill="none" xmlns="http://www.w3.org/2000/svg">
<path d="M18.8287 13.1716L13.1719 18.8285" stroke="#28303F" stroke-width="1.5" stroke-linecap="round"/>
<path d="M13.0702 8.62635C12.6797 9.01687 12.6797 9.65005 13.0702 10.0406C13.4607 10.4311 14.0939 10.4311 14.4845 10.0406L13.0702 8.62635ZM21.9591 17.5153C21.5686 17.9058 21.5687 18.539 21.9591 18.9296C22.3497 19.3201 22.9829 19.3201 23.3734 18.9296L21.9591 17.5153ZM14.4845 10.0406L16.7067 7.81834L15.2925 6.40413L13.0702 8.62635L14.4845 10.0406ZM24.1814 15.293L21.9591 17.5153L23.3734 18.9296L25.5957 16.7073L24.1814 15.293ZM24.1814 7.81833C26.2455 9.88242 26.2455 13.229 24.1814 15.293L25.5957 16.7073C28.4407 13.8621 28.4407 9.24926 25.5957 6.40411L24.1814 7.81833ZM16.7067 7.81834C18.7707 5.75425 22.1174 5.75425 24.1814 7.81833L25.5957 6.40411C22.7505 3.55898 18.1377 3.55898 15.2925 6.40413L16.7067 7.81834Z" fill="#28303F"/>
<path d="M18.9288 23.3736C19.3194 22.9831 19.3194 22.3499 18.9288 21.9594C18.5383 21.5688 17.9051 21.5688 17.5146 21.9594L18.9288 23.3736ZM10.0398 14.4847C10.4304 14.0942 10.4304 13.461 10.0398 13.0705C9.6493 12.68 9.01614 12.68 8.62562 13.0705L10.0398 14.4847ZM17.5146 21.9594L15.2923 24.1816L16.7066 25.5959L18.9288 23.3736L17.5146 21.9594ZM7.81759 16.707L10.0398 14.4847L8.62562 13.0705L6.40338 15.2927L7.81759 16.707ZM7.81759 24.1816C5.7535 22.1175 5.7535 18.771 7.81759 16.707L6.40338 15.2927C3.55825 18.1379 3.55825 22.7507 6.40338 25.5959L7.81759 24.1816ZM15.2923 24.1816C13.2282 26.2458 9.88169 26.2458 7.81759 24.1816L6.40338 25.5959C9.24851 28.441 13.8614 28.441 16.7066 25.5959L15.2923 24.1816Z" fill="#28303F"/>
</svg>
