<svg width="34" height="34" viewBox="0 0 34 34" fill="none" xmlns="http://www.w3.org/2000/svg">
<rect width="34" height="34" fill="white"/>
<path d="M5.66732 8.49992C7.23212 8.49992 8.50065 7.23139 8.50065 5.66659C8.50065 4.10178 7.23212 2.83325 5.66732 2.83325C4.10251 2.83325 2.83398 4.10178 2.83398 5.66659C2.83398 7.23139 4.10251 8.49992 5.66732 8.49992Z" fill="white" stroke="#28303F" stroke-width="1.5"/>
<path d="M2.83398 12.0417H8.50065V31.1667H2.83398V12.0417Z" stroke="#28303F" stroke-width="1.5" stroke-linejoin="round"/>
<path d="M12.75 12.0417V10.9792C12.1632 10.9792 11.6875 11.455 11.6875 12.0417H12.75ZM18.4167 12.0417H19.4792C19.4792 11.455 19.0034 10.9792 18.4167 10.9792V12.0417ZM18.4167 31.1667V32.2292C19.0034 32.2292 19.4792 31.7535 19.4792 31.1667H18.4167ZM12.75 31.1667H11.6875C11.6875 31.7535 12.1632 32.2292 12.75 32.2292V31.1667ZM29.75 31.1667V32.2292C30.3368 32.2292 30.8125 31.7535 30.8125 31.1667H29.75ZM24.0833 31.1667H23.0208C23.0208 31.7535 23.4965 32.2292 24.0833 32.2292V31.1667ZM18.4167 13.2337H17.3542C17.3542 13.5787 17.5216 13.9021 17.8033 14.1012C18.0847 14.3003 18.4456 14.3505 18.7707 14.2355L18.4167 13.2337ZM12.75 13.1042H18.4167V10.9792H12.75V13.1042ZM18.4167 30.1042H12.75V32.2292H18.4167V30.1042ZM13.8125 31.1667V12.0417H11.6875V31.1667H13.8125ZM13.8125 31.1667V21.2501H11.6875V31.1667H13.8125ZM28.6875 21.2501V31.1667H30.8125V21.2501H28.6875ZM29.75 30.1042H24.0833V32.2292H29.75V30.1042ZM17.3542 21.2501V31.1667H19.4792V21.2501H17.3542ZM23.0208 21.2501V31.1667H25.1458V21.2501H23.0208ZM21.25 19.4792C22.2281 19.4792 23.0208 20.272 23.0208 21.2501H25.1458C25.1458 19.0984 23.4016 17.3542 21.25 17.3542V19.4792ZM21.25 17.3542C19.0984 17.3542 17.3542 19.0984 17.3542 21.2501H19.4792C19.4792 20.272 20.2719 19.4792 21.25 19.4792V17.3542ZM30.8125 21.2501C30.8125 15.9689 26.5312 11.6876 21.25 11.6876V13.8126C25.3576 13.8126 28.6875 17.1425 28.6875 21.2501H30.8125ZM18.7707 14.2355C19.5448 13.9619 20.3787 13.8126 21.25 13.8126V11.6876C20.1342 11.6876 19.061 11.8791 18.0626 12.232L18.7707 14.2355ZM17.3542 12.0417V13.2337H19.4792V12.0417H17.3542Z" fill="#28303F"/>
</svg>
