<svg width="32" height="32" viewBox="0 0 32 32" fill="none" xmlns="http://www.w3.org/2000/svg">
<path d="M32 16C32 7.16344 24.8366 0 16 0C7.16344 0 0 7.16344 0 16C0 24.8366 7.16344 32 16 32C24.8366 32 32 24.8366 32 16Z" fill="#D8D8D8"/>
<path d="M14.7669 16.7646C14.7669 15.1488 13.4571 13.8389 11.8414 13.8389C10.2258 13.8389 8.91602 15.1488 8.91602 16.7646C8.91602 18.3804 10.2258 19.6903 11.8414 19.6903C13.4571 19.6903 14.7669 18.3804 14.7669 16.7646Z" fill="#D8D8D8"/>
<path d="M24.0006 13.124L22.096 14.1716L20.1914 15.9812V22.1907H22.8578C23.489 22.1907 24.0006 21.6791 24.0006 21.0479V13.124Z" fill="#4CAF50"/>
<path d="M8 13.124L9.37663 13.7755L11.8092 15.9812V22.1907H9.14275C8.51157 22.1907 8 21.6791 8 21.0479V13.124Z" fill="#1E88E5"/>
<path d="M20.1888 11.2188L15.9987 14.3616L11.8087 11.2188L11.4277 13.4283L11.8087 15.9807L15.9987 19.1235L20.1888 15.9807L20.5697 13.4283L20.1888 11.2188Z" fill="#E53935"/>
<path d="M8 11.6373V13.1238L11.8092 15.981V11.2191L10.6192 10.3272C10.3358 10.1147 9.99143 10 9.63718 10C8.73288 10 8 10.733 8 11.6373Z" fill="#C62828"/>
<path d="M24.0006 11.6373V13.1238L20.1914 15.981V11.2191L21.3814 10.3272C21.6648 10.1147 22.0091 10 22.3634 10C23.2677 10 24.0006 10.733 24.0006 11.6373Z" fill="#FBC02D"/>
</svg>
