<svg width="32" height="32" viewBox="0 0 32 32" fill="none" xmlns="http://www.w3.org/2000/svg">
<path d="M32 16C32 7.16344 24.8366 0 16 0C7.16344 0 0 7.16344 0 16C0 24.8366 7.16344 32 16 32C24.8366 32 32 24.8366 32 16Z" fill="#2867B2"/>
<path fill-rule="evenodd" clip-rule="evenodd" d="M23.8304 16.1823C23.8304 15.615 23.7795 15.0695 23.685 14.5459H16.1504V17.6405H20.4559C20.2704 18.6405 19.7068 19.4877 18.8595 20.055V22.0623H21.4449C22.9577 20.6695 23.8304 18.6186 23.8304 16.1823Z" fill="white"/>
<path fill-rule="evenodd" clip-rule="evenodd" d="M16.1491 23.9995C18.3091 23.9995 20.12 23.2832 21.4437 22.0614L18.8582 20.0541C18.1418 20.5341 17.2255 20.8177 16.1491 20.8177C14.0655 20.8177 12.3018 19.4104 11.6727 17.5195H9V19.5923C10.3164 22.2068 13.0218 23.9995 16.1491 23.9995Z" fill="white"/>
<path fill-rule="evenodd" clip-rule="evenodd" d="M11.674 17.52C11.514 17.04 11.4231 16.5272 11.4231 16C11.4231 15.4727 11.514 14.96 11.674 14.48V12.4072H9.0013C8.45948 13.4872 8.15039 14.709 8.15039 16C8.15039 17.2909 8.45948 18.5127 9.0013 19.5927L11.674 17.52Z" fill="white"/>
<path fill-rule="evenodd" clip-rule="evenodd" d="M16.1491 11.1818C17.3237 11.1818 18.3782 11.5855 19.2073 12.3782L21.5018 10.0836C20.1164 8.79273 18.3055 8 16.1491 8C13.0218 8 10.3164 9.79273 9 12.4073L11.6727 14.48C12.3018 12.5891 14.0655 11.1818 16.1491 11.1818Z" fill="white"/>
</svg>
