<svg width="24" height="24" viewBox="0 0 24 24" fill="none" xmlns="http://www.w3.org/2000/svg">
<path d="M14.1216 9.87866L9.87891 14.1213" stroke="#28303F" stroke-width="1.5" stroke-linecap="round"/>
<path d="M9.80366 6.4697C9.51076 6.76259 9.51076 7.23747 9.80366 7.53036C10.0965 7.82325 10.5714 7.82325 10.8643 7.53036L9.80366 6.4697ZM16.4703 13.1364C16.1774 13.4293 16.1775 13.9042 16.4703 14.1971C16.7632 14.49 17.2381 14.49 17.531 14.1971L16.4703 13.1364ZM10.8643 7.53036L12.531 5.86369L11.4703 4.80303L9.80366 6.4697L10.8643 7.53036ZM18.137 11.4697L16.4703 13.1364L17.531 14.1971L19.1977 12.5304L18.137 11.4697ZM18.137 5.86368C19.6851 7.41175 19.6851 9.92166 18.137 11.4697L19.1977 12.5304C21.3315 10.3965 21.3315 6.93688 19.1977 4.80302L18.137 5.86368ZM12.531 5.86369C14.079 4.31562 16.589 4.31562 18.137 5.86368L19.1977 4.80302C17.0638 2.66917 13.6042 2.66917 11.4703 4.80303L12.531 5.86369Z" fill="#28303F"/>
<path d="M14.1976 17.5303C14.4905 17.2374 14.4905 16.7625 14.1976 16.4696C13.9047 16.1767 13.4298 16.1767 13.1369 16.4696L14.1976 17.5303ZM7.53085 10.8636C7.82374 10.5707 7.82374 10.0958 7.53085 9.80292C7.23795 9.51003 6.76308 9.51003 6.47019 9.80292L7.53085 10.8636ZM13.1369 16.4696L11.4702 18.1363L12.5309 19.197L14.1976 17.5303L13.1369 16.4696ZM5.86417 12.5303L7.53085 10.8636L6.47019 9.80292L4.80351 11.4696L5.86417 12.5303ZM5.86417 18.1363C4.3161 16.5882 4.3161 14.0783 5.86417 12.5303L4.80351 11.4696C2.66966 13.6035 2.66966 17.0631 4.80351 19.197L5.86417 18.1363ZM11.4702 18.1363C9.92215 19.6844 7.41224 19.6844 5.86417 18.1363L4.80351 19.197C6.93736 21.3308 10.397 21.3308 12.5309 19.197L11.4702 18.1363Z" fill="#28303F"/>
</svg>
